<?xml version="1.0" encoding="utf-8"?>
<!-- Generator: Adobe Illustrator 26.1.0, SVG Export Plug-In . SVG Version: 6.00 Build 0)  -->
<svg version="1.1" id="Layer_1" xmlns="http://www.w3.org/2000/svg" xmlns:xlink="http://www.w3.org/1999/xlink" x="0px" y="0px"
	 viewBox="0 0 204.78 161.74" style="enable-background:new 0 0 204.78 161.74;" xml:space="preserve">
<style type="text/css">
	.st0{fill:#E9BA90;}
	.st1{fill:#BB6240;}
	.st2{fill:#F9E8D9;}
	.st3{fill:#727540;}
	.st4{fill:#98996D;}
	.st5{fill:#B1C18B;}
	.st6{fill:#77A594;}
	.st7{fill:#A9C4BB;}
	.st8{fill:#FFF8F3;}
	.st9{fill:#F9D8B7;}
	.st10{fill:#E0A92D;}
	.st11{fill:#A54A2F;}
	.st12{fill:#E49D7D;}
	.st13{fill:#F7D0C1;}
	.st14{fill:#D3E0D7;}
</style>
<g>
	<g>
		<path class="st0" d="M128.32,31.59c0.94,1.61,1.81,3.26,2.69,4.91c0.31,0.58,0.61,1.15,0.84,1.73c-0.09-2.4-0.34-4.8-0.77-7.24
			c-0.07-0.39,0.52-0.45,0.6-0.07c0.98,4.45,1.23,9.15,0.61,13.68c2.12-4.43,3.86-9.05,5.11-13.85c0.12-0.47,0.88-0.36,0.75,0.11
			c-1.85,6.94-4.67,13.5-8.19,19.68c3.11-3.42,6.86-6.35,10.81-8.72c0.26-0.16,0.56,0.21,0.3,0.39c-2.2,1.47-4.24,3.05-6.21,4.72
			c0.11-0.03,0.23-0.05,0.34-0.08c2.04-0.66,4.23-0.9,6.36-0.7c0.29,0.03,0.3,0.52-0.01,0.52c-2.11,0.04-4.1,0.29-6.15,0.75
			c-0.9,0.2-1.86,0.63-2.57,1.22c-1.9,1.58-3.75,3.46-5.07,5.57c-1.56,2.5-3.22,4.93-4.98,7.29c0.41-0.56,1.78-1,2.4-1.33
			c0.86-0.46,1.73-0.94,2.63-1.32c1.64-0.7,2.61-2,3.77-3.28c1.18-1.31,2.61-2.47,3.95-3.62c0.22-0.19,0.55,0.14,0.36,0.36
			c-1.64,1.8-3.39,3.55-5.17,5.24c2.74-1.15,5.56-2.12,8.42-2.86c0.29-0.08,0.49,0.35,0.18,0.45c-5.64,1.86-11.21,4.19-16.43,7
			c-0.02,0.01-0.04,0.01-0.06,0.01c-0.32,0.22-0.66,0.43-1,0.6c-0.45,0.59-0.89,1.19-1.36,1.77c-1.34,1.69-2.72,3.38-4.13,5.05
			c1.48-0.64,2.99-1.19,4.53-1.66c1.48-0.45,2.79-0.55,4.07-1.48c1.29-0.93,2.46-1.94,3.48-3.17c0.24-0.29,0.69,0.05,0.47,0.36
			c-0.9,1.25-2.06,2.33-3.37,3.16c1.62-0.3,3.25-0.52,4.91-0.65c0.34-0.03,0.4,0.49,0.06,0.52c-3.62,0.35-7.08,1.11-10.46,2.22
			c1.84,0.04,3.75,0.71,5.31,1.67c0.25,0.15,0.01,0.56-0.26,0.44c-1.76-0.82-3.69-1.31-5.64-1.26c-0.87,0.02-2.14,0.06-2.92,0.48
			c-1.03,0.56-1.85,1.67-2.74,2.41c-1.15,0.96-2.09,2.26-3.12,3.35c-2.11,2.24-4.28,4.42-6.55,6.5c-4.48,4.13-9.31,7.91-14.54,11.05
			c-0.32,0.19-0.68-0.26-0.36-0.46c5.17-3.23,9.96-7.02,14.43-11.16c2.25-2.08,4.41-4.24,6.51-6.47c2.99-3.18,6.71-6.31,4.99-11.16
			c-0.74-2.08-2.23-4.01-3.69-5.63c-0.22-0.25,0.17-0.65,0.42-0.42c1.72,1.63,3.02,3.68,3.85,5.9c0.08-2.1,0.05-4.2,0.05-6.36
			c0-0.38,0.57-0.47,0.6-0.07c0.29,3.73,0.33,7.68-0.52,11.35c1.16-1.36,2.29-2.74,3.4-4.13c1.35-1.68,2.65-3.39,3.91-5.14
			c0.52-0.72,0.51-2.48,0.38-3.35c-0.2-1.39-0.73-2.77-1.26-4.06c-1.18-2.89-2.78-5.58-4.3-8.31c-0.17-0.3,0.34-0.59,0.52-0.3
			c2.38,3.65,4.5,7.56,5.43,11.84c0.67-4.69,0.63-9.33-0.19-14.14c-0.07-0.39,0.52-0.44,0.6-0.07c1.21,5.6,1.12,11.53-0.26,17.09
			c1.61-2.3,3.14-4.66,4.56-7.08c2.08-3.54,3.54-6.6,3.04-10.82c-0.22-1.84-0.87-3.12-1.76-4.74c-0.72-1.31-1.44-2.62-2.11-3.95
			C127.67,31.59,128.15,31.3,128.32,31.59z"/>
		<g>
			<g>
				<path class="st1" d="M136.73,28.77c-0.6,0.37-0.42,0.72-0.62,1.25c-0.2,0.54-0.72,0.84-0.54,1.52c0.11,0.42,0.42,0.68,0.81,0.78
					c-0.2,1.43,2.06,1.47,2.05,0.07c0.51,0.19,1.06,0.17,1.46-0.31c0.38-0.46,0.28-1.05-0.14-1.41c0.41-0.43,0.85-1.26,0.21-1.72
					c-0.25-0.18-0.53-0.15-0.74-0.01c-0.2-0.72-1.09-1.09-1.5-0.35C137.42,28.44,137.04,28.58,136.73,28.77z"/>
				<path class="st2" d="M138.53,30.09c0.13,0.16,0.14,0.38,0.08,0.56c0,0.04,0,0.08-0.01,0.12c-0.1,0.36-0.5,0.59-0.86,0.49
					c-0.32-0.1-0.44-0.42-0.42-0.73C137.36,29.93,138.13,29.58,138.53,30.09z"/>
			</g>
			<g>
				<path class="st1" d="M130.26,30.73c-0.78,0.73,0.22,2.34,1.12,1.74c0.46,0.52,1.41,0.59,1.88-0.01
					c0.35-0.46,0.01-0.96-0.41-1.21c0.24-0.25,0.18-0.66,0.05-1.05c0-0.01-0.02-0.01-0.02-0.01c0.03-0.21-0.01-0.42-0.16-0.62
					c-0.32-0.45-0.86-0.4-1.13-0.04C130.99,28.97,129.76,29.96,130.26,30.73z"/>
				<path class="st2" d="M131.37,30.47c0.38-0.01,0.84,0.28,0.65,0.72c-0.14,0.33-0.65,0.46-0.85,0.11
					c-0.04-0.08-0.06-0.16-0.06-0.25c-0.04-0.06-0.06-0.13-0.06-0.22c0-0.01,0-0.03,0-0.04C131.05,30.63,131.22,30.47,131.37,30.47z
					"/>
			</g>
			<g>
				<path class="st1" d="M125.88,31.76c-0.49,0.36-0.52,1.03-0.05,1.49c0.38,0.37,0.94,0.34,1.22-0.03
					c0.37,0.46,0.96,0.71,1.44,0.17c0.42-0.46,0.16-1.08-0.32-1.32c0.83-0.64-0.04-2.15-1.02-1.48
					C126.35,30.1,125.48,30.93,125.88,31.76z"/>
				<path class="st2" d="M127.5,31.69c0.09,0.16,0.07,0.3,0,0.42c-0.07,0.25-0.34,0.43-0.61,0.33c-0.3-0.11-0.39-0.55-0.19-0.79
					C126.89,31.4,127.33,31.41,127.5,31.69z"/>
			</g>
			<g>
				<path class="st1" d="M131.53,36.9c-0.82-0.1-1.89,1.61-0.79,2c-0.35,0.48-0.23,1.19,0.39,1.46c0.45,0.21,1.07,0.04,1.21-0.38
					c0.94,0.36,2-0.75,1.3-1.44c0.45-0.38,0.75-0.94,0.45-1.5c-0.2-0.38-0.59-0.48-0.91-0.35C132.99,36,131.57,35.92,131.53,36.9z"
					/>
				<path class="st2" d="M132.72,37.87c0.11,0.14,0.08,0.31,0,0.46c-0.07,0.29-0.27,0.58-0.57,0.63c-0.5,0.09-0.43-0.5-0.27-0.77
					C132.02,37.96,132.47,37.54,132.72,37.87z"/>
			</g>
			<g>
				<path class="st1" d="M139.66,40.18c-0.56,0.1-0.97,0.57-1.08,1.17c-0.11,0.57,0.26,0.87,0.72,1.04
					c-0.78,1.37,1.42,2.53,2.05,0.97c0.59,0.18,1.26,0.07,1.76-0.43c0.43-0.42,0.82-1.53,0.11-1.71c0.19-0.57,0.19-1.26-0.39-1.62
					c-0.39-0.24-0.81-0.14-1.08,0.15C141.17,38.88,139.5,39.11,139.66,40.18z"/>
				<path class="st2" d="M141.92,41.45c-0.04,0.24-0.25,0.41-0.49,0.49c-0.26,0.15-0.57,0.22-0.77,0.09
					c-0.44-0.3,0.13-0.97,0.45-1.11C141.45,40.77,141.98,41.01,141.92,41.45z"/>
			</g>
			<g>
				<path class="st1" d="M139.48,45.74c-0.76,0.1-0.86,1.41-0.53,1.98c0.38,0.66,1.21,0.78,1.67,0.26c0.47,0.52,1.23,0.57,1.69-0.1
					c0.05-0.07,0.04-0.13,0.01-0.18c0.24-0.17,0.48-0.6,0.37-0.87c1.2-0.82,0.08-2.73-1.01-2
					C140.98,44.18,139.47,44.78,139.48,45.74z"/>
				<path class="st2" d="M141.48,45.89c0.06,0.03,0.1,0.08,0.13,0.14c0.09,0.06,0.17,0.17,0.18,0.32c0.03,0.34-0.29,0.57-0.61,0.62
					c-0.01,0-0.01,0.01-0.02,0.01c0,0-0.01,0-0.01,0c-0.27,0.03-0.54-0.07-0.61-0.37C140.42,46.16,141.08,45.67,141.48,45.89z"/>
			</g>
			<g>
				<path class="st1" d="M125.8,48.58c-0.47-0.08-1.08,0.4-1.23,0.8c-0.14,0.4,0.08,0.94,0.45,1.16c-0.28,0.38-0.12,0.96,0.3,1.27
					c0.41,0.31,1.19,0.38,1.36-0.16c0.41,0.11,0.91,0.07,1.12-0.37c0.18-0.36,0.01-0.7-0.24-0.96c0.5-0.22,0.91-0.72,0.68-1.28
					c-0.13-0.3-0.42-0.42-0.67-0.34C127.46,47.82,126.1,47.63,125.8,48.58z"/>
				<path class="st2" d="M126.07,49.37c-0.36,0.27-0.42,0.99,0.08,1.15c0.31,0.1,0.57-0.19,0.55-0.44c0.01-0.03,0.03-0.06,0.03-0.09
					C126.78,49.61,126.51,49.04,126.07,49.37z"/>
			</g>
			<g>
				<path class="st1" d="M122.55,40.71c-0.74,0.19-1.03,2.4,0.35,2.28c-0.01,0.5,0.92,0.9,1.32,0.92c0.52,0.04,1.13-0.34,0.92-0.82
					c0.9-0.14,1.3-1.15,0.59-1.89c-0.02-0.02-0.04-0.02-0.06-0.02c0.38-0.35,0.58-0.82,0.28-1.28c-0.32-0.5-1.16-0.6-1.53-0.18
					C123.83,38.74,122.29,39.49,122.55,40.71z"/>
				<path class="st2" d="M123.38,41.44c-0.16,0.53,0.38,1.06,0.9,0.84c0.3-0.13,0.41-0.46,0.33-0.74c0-0.13-0.03-0.27-0.11-0.37
					C124.17,40.7,123.52,40.96,123.38,41.44z"/>
			</g>
			<g>
				<path class="st1" d="M116.35,43.11c-0.31,0.59-0.1,1.26,0.46,1.56c-0.39,0.5-0.49,1.41,0.15,1.7c0.42,0.19,1.19,0,1.34-0.4
					c0.56,0.21,1.27-0.04,1.55-0.62c0.26-0.56-0.03-1.2-0.54-1.43c0.23-0.27,0.45-0.59,0.43-0.85c-0.02-0.3-0.35-0.49-0.58-0.62
					c-0.45-0.24-1.06-0.22-1.32,0.18C117.37,42.27,116.66,42.54,116.35,43.11z"/>
				<path class="st2" d="M118.36,43.84c0.08,0.16,0.1,0.34,0.06,0.5c0.01,0.02,0.01,0.04,0.01,0.06c0.02,0.39-0.41,0.64-0.73,0.38
					c-0.26-0.21-0.36-0.74-0.17-1.02C117.76,43.46,118.19,43.51,118.36,43.84z"/>
			</g>
			<g>
				<path class="st1" d="M134.3,51.78c-0.87,0.73-0.83,2.06,0.4,2.42c0.56,0.16,1.02,0.64,1.67,0.43c0.51-0.17,0.81-0.64,0.79-1.16
					c0.08-0.05,0.16-0.11,0.23-0.18c0.3-0.3,0.35-0.91,0.09-1.14c0.8-0.94-0.52-2.38-1.52-1.49
					C135.11,49.66,133.48,51.04,134.3,51.78z"/>
				<path class="st2" d="M135.29,51.98c-0.22,0.35-0.03,0.91,0.42,0.94c0.23,0.02,0.47-0.14,0.54-0.34c0.21-0.2,0.32-0.51,0.1-0.76
					C136.06,51.49,135.5,51.65,135.29,51.98z"/>
			</g>
			<g>
				<path class="st1" d="M138.36,53.49c-0.21,0.21-0.2,0.49-0.35,0.7c-0.12,0.16-0.34,0.25-0.48,0.42c-0.89,1.04,0.04,2.5,1.26,1.91
					c0.51,0.31,1.17,0.41,1.67,0.18c0.39-0.18,0.9-1.04,0.62-1.42c0.43-0.47,0.67-1.11,0.28-1.7c-0.32-0.49-0.97-0.59-1.38-0.23
					C139.45,53.05,138.82,53.01,138.36,53.49z"/>
				<path class="st2" d="M140.22,55.03c-0.01,0.06-0.05,0.11-0.09,0.16c-0.15,0.31-0.58,0.5-0.89,0.34
					c-0.48-0.23-0.37-0.76,0.05-0.97C139.64,54.37,140.34,54.47,140.22,55.03z"/>
			</g>
			<g>
				<path class="st1" d="M127.48,57.73c-0.78,0.11-1.45,1.24-0.85,1.64c-0.35,1.04,0.77,2,1.67,1.38c0.73,0.11,1.58-0.22,1.39-0.85
					c0.67-0.12,1.17-0.73,1.01-1.46c-0.12-0.51-0.69-1.03-1.16-0.8c-0.2-0.53-0.72-0.9-1.33-0.7
					C127.89,57.04,127.48,57.4,127.48,57.73z"/>
				<path class="st2" d="M129.23,58.73c0,0.25-0.17,0.49-0.4,0.61c-0.06,0.05-0.12,0.1-0.21,0.13c-0.2,0.07-0.43,0.01-0.58-0.14
					c-0.31-0.31-0.09-0.71,0.25-0.86C128.59,58.33,129.22,58.22,129.23,58.73z"/>
			</g>
			<g>
				<path class="st1" d="M121.78,56.11c-0.51,0.33-0.54,0.96-0.18,1.36c-0.48,0.32-0.8,0.85-0.58,1.45c0.19,0.51,0.66,0.71,1.11,0.6
					c-0.02,1.19,1.86,1.19,1.73,0.03c0.5-0.16,0.99-0.48,0.96-1.08c-0.02-0.39-0.27-0.63-0.58-0.69c0.24-0.37,0.25-0.87-0.11-1.25
					c-0.29-0.31-0.68-0.33-0.91-0.12C122.87,56,122.31,55.77,121.78,56.11z"/>
				<path class="st2" d="M123.15,58.38c-0.03,0.12-0.12,0.22-0.26,0.24c-0.3,0.04-0.6-0.15-0.67-0.46
					c-0.06-0.26,0.08-0.54,0.36-0.59C122.98,57.5,123.33,58.12,123.15,58.38z"/>
			</g>
			<g>
				<path class="st1" d="M127.2,64.21c-0.49,1.36,2.66,1.81,2.4,0.21c0.33-0.03,0.66-0.17,0.87-0.38c0.46-0.49,0.14-1.32-0.46-1.23
					c-0.17-0.86-1.65-1.18-2.04-0.48C127.05,61.7,126.03,64.05,127.2,64.21z"/>
				<path class="st2" d="M128.67,63.06c0.44-0.04,0.56,0.41,0.44,0.7c0,0.08-0.03,0.16-0.1,0.22c-0.29,0.22-0.74,0.08-0.82-0.28
					C128.12,63.39,128.36,63.09,128.67,63.06z"/>
			</g>
			<g>
				<path class="st1" d="M130.26,65.25c-0.31,0.47-0.19,1.01,0.17,1.4c-0.29,0.55,0.23,1.2,0.71,1.5c0.09,0.06,0.19,0.02,0.24-0.04
					c0.35,0.23,0.77,0.34,1.24,0.17c0.3-0.11,0.71-0.4,0.62-0.77c0-0.02-0.01-0.04-0.02-0.06c0.64-0.28,1.25-0.79,1.06-1.55
					c-0.12-0.47-0.53-0.71-0.94-0.64c0-0.32-0.23-0.62-0.54-0.77c-0.49-0.24-0.97-0.04-1.27,0.35
					C131.09,64.59,130.53,64.83,130.26,65.25z"/>
				<path class="st2" d="M132.43,65.46c0.64-0.05,0.8,1.3,0.19,1.38c-0.01,0.01-0.01,0.03-0.02,0.04c-0.05,0.08-0.17,0.1-0.26,0.07
					c-0.3-0.11-0.48-0.4-0.47-0.73C131.88,65.9,132.08,65.48,132.43,65.46z"/>
			</g>
			<g>
				<path class="st1" d="M123.93,69.25c-0.26,0.46-0.32,1.14,0.14,1.43c-0.54,0.34-0.69,0.95-0.21,1.67c0.31,0.47,1.1,0.63,1.31,0.2
					c0.51,0.47,1.33,0.65,1.83,0.04c0.16-0.2,0.25-0.59,0.16-0.84c0.8-0.47,0.55-2.13-0.46-1.9c-0.05-0.41-0.23-0.81-0.67-0.94
					c-0.31-0.09-0.6,0.02-0.79,0.24C124.82,68.8,124.29,68.64,123.93,69.25z"/>
				<path class="st2" d="M125.88,70.43c0.12,0.12,0.16,0.26,0.16,0.41c0.25,0.24,0.05,0.7-0.28,0.77c-0.47,0.1-0.79-0.39-0.7-0.81
					C125.15,70.44,125.56,70.1,125.88,70.43z"/>
			</g>
			<g>
				<path class="st1" d="M114.35,56.26c-0.27,0.49-0.08,0.98,0.3,1.29c-0.84,0.79,1.27,2.35,1.67,1.29
					c0.44,0.09,0.91-0.03,1.14-0.45c0.16-0.29,0.15-0.62,0-0.88c0.14-0.18,0.23-0.39,0.24-0.63c0.02-0.56-0.43-0.88-0.86-0.76
					c-0.15-0.55-0.89-0.61-1.34-0.23C115.07,55.71,114.59,55.82,114.35,56.26z"/>
				<path class="st2" d="M115.9,56.84c0.26,0.02,0.59,0.12,0.55,0.47c0,0.03-0.02,0.05-0.03,0.08c0.03,0.19-0.06,0.42-0.29,0.42
					c-0.52,0-0.72-0.45-0.46-0.88C115.72,56.86,115.82,56.83,115.9,56.84z"/>
			</g>
			<g>
				<path class="st1" d="M117.7,63.16c-0.43,0.35-0.4,0.86-0.19,1.31c-0.47,0.43-0.5,2.27,0.6,1.9c0.44,0.87,2,0.27,1.89-0.69
					c0.28-0.16,0.52-0.4,0.64-0.71c0.15-0.41-0.06-0.88-0.43-0.92c0.07-0.47-0.08-0.96-0.59-1.15c-0.39-0.15-0.74-0.01-0.95,0.28
					C118.41,62.93,118.02,62.9,117.7,63.16z"/>
				<path class="st2" d="M119.1,64.28c0.46,0.26,0.21,1.07-0.28,1.09c-0.06,0.03-0.13,0.04-0.19,0c-0.28-0.16-0.32-0.45-0.19-0.74
					C118.55,64.39,118.8,64.11,119.1,64.28z"/>
			</g>
			<g>
				<path class="st1" d="M109.89,57.23c-0.26,0.42-0.21,1.09,0.2,1.29c-0.33,0.45-0.23,1.12,0.23,1.51
					c0.37,0.31,0.91,0.25,1.09-0.13c0.78,0.47,1.89-1.09,1.11-1.84c0.21-0.33,0.23-0.76-0.02-1.13c-0.43-0.62-1.12-0.51-1.4,0
					C110.77,56.67,110.15,56.82,109.89,57.23z"/>
				<path class="st2" d="M111.67,58.13c-0.02,0.17-0.14,0.39-0.3,0.47c-0.15,0.11-0.4,0.09-0.52-0.11
					c-0.16-0.26-0.06-0.77,0.26-0.88C111.43,57.5,111.71,57.82,111.67,58.13z"/>
			</g>
		</g>
	</g>
	<path class="st3" d="M129.92,107.05c-5.63-2.73-11.73-5.31-16.9-8.84c-0.41-0.28-0.18-1.05,0.34-0.85
		c5.39,2.08,10.46,5.26,15.64,7.81c2.73,1.34,5.48,2.65,8.26,3.9c0.01-0.01,0.01-0.02,0.03-0.03c4.08-3.62,8.79-6.45,13.87-8.46
		c1.48-0.59,7.93-3.78,8.87-0.89c0.92,2.78-5.68,5.68-7.27,6.31c-4.31,1.72-8.83,3.21-13.43,3.99c2.44,1.07,4.88,2.11,7.37,3.08
		c0.44,0.17,0.88,0.32,1.31,0.48c0.09-0.01,0.19-0.04,0.28-0.06c3.55-1.68,18.24-8.4,18.75-4.04c0.23,1.95-4.51,3.26-5.86,3.57
		c-3.93,0.9-7.99,0.42-11.96,0.98c3.81,1.4,7.67,2.63,11.56,3.67c0.28-0.03,0.55-0.06,0.82-0.1c2.77-1.65,14.85-8.78,16-3.76
		c0.71,3.08-9.52,4.04-14.65,4.44c3.34,0.83,6.72,1.53,10.14,2.09c0.03-0.06,0.08-0.11,0.16-0.14c3.21-0.99,6.62-1.08,9.89-0.31
		c1.32,0.31,5.88,1.29,5.85,3.24c-0.07,4.47-13.39-0.9-15.62-1.83c-3.08-0.38-6.16-0.93-9.19-1.61c2.78,2.15,5.27,4.62,7.4,7.44
		c0.7,0.93,4.3,5.09,2.57,6.52c-2.84,2.35-8.59-9.59-10.5-12.71c-0.04-0.01-0.08-0.03-0.12-0.07c-0.44-0.57-0.92-1.1-1.39-1.64
		c-3.94-0.97-7.83-2.15-11.65-3.48c2.8,2.74,5.34,5.72,7.52,8.97c1.58,2.34,4.35,5.88,3.98,8.9c-0.02,0.15-0.09,0.27-0.24,0.31
		c-2.41,0.7-5.09-3.9-6.07-5.59c-2.52-4.34-3.88-9.15-6.9-13.22c-0.63-0.23-1.26-0.45-1.9-0.69c-2.63-1-5.23-2.06-7.81-3.18
		c3.35,3.58,6.01,7.75,7.79,12.33c0.83,2.11,2.71,7.35-0.06,9.02c-4.94,2.99-8.09-17.96-9.26-22.02
		C134.98,109.44,132.44,108.27,129.92,107.05z"/>
	<path class="st3" d="M123.09,94.38c-0.11,0.03-0.23,0.02-0.28-0.05c-0.05-0.06-0.09-0.12-0.14-0.19c-0.02-0.01-0.04-0.01-0.06-0.03
		c-0.03-0.05-0.06-0.11-0.09-0.17c-0.08-0.1-0.16-0.21-0.24-0.31c-0.04-0.05-0.03-0.11,0.01-0.16c-0.04-0.08-0.08-0.15-0.12-0.23
		c-0.08,0.02-0.16,0.04-0.24,0.06c-0.27,0.06-0.37-0.21-0.09-0.28c13.56-3.39,26.08-9.72,38.14-16.07
		c10.74-5.66,21.22-12.08,28.13-20.38c0.2-0.25,0.62-0.12,0.46,0.13c-2.65,4.21-5.94,8.34-10.47,11.89
		c-4.68,3.66-10.33,6.58-15.83,9.47C149.85,84.57,136.92,90.58,123.09,94.38z"/>
	<path class="st3" d="M110.08,71.8c-1.68-14.9-4.15-32.07-11.84-45.19c-0.34-0.58-1.27-0.19-1.09,0.46
		c2.05,7.44,4.85,14.62,6.62,22.15c1.88,8.03,2.91,16.16,3.62,24.37c1.33,15.59,0.05,31.3,1.47,46.82c0.08,0.88,1.54,1.26,1.69,0.22
		C112.82,104.8,111.87,87.66,110.08,71.8z"/>
	<path class="st4" d="M49.5,0.54c0.97,19.75,8.49,40.29,15.75,59.08c3.91,10.14,8.31,20.12,13.22,29.87
		c4.81,9.55,9.39,20.57,16.01,29.09c1.23,1.58,3.73,0.2,2.79-1.62c-4.66-9.08-11.13-17.32-15.89-26.44c-4.9-9.38-9.32-19-13.3-28.74
		C60.19,42.52,52.13,21.18,50.79,0.75C50.74-0.09,49.45-0.32,49.5,0.54z"/>
	<g>
		<path class="st4" d="M68.94,24.65c-0.65,2.86-0.39,6.24-0.57,9.18c-0.13,2.09-0.26,4.19-0.36,6.29c-0.02,0.36-0.03,0.71-0.04,1.07
			c-0.15,3.62-0.2,7.24,0.01,10.85c0.05,0.75,0.1,1.5,0.17,2.25c0.02,0.26,0.04,0.5,0.07,0.74c0.48,4.85,1.43,9.63,2.85,14.29
			c0.14,0.47,0.27,0.93,0.44,1.39c1.65,5.18,3.87,10.19,6.57,14.93c0.5,0.87,1.01,1.74,1.55,2.58c0.25,0.43,0.51,0.83,0.77,1.24
			c2.39,3.7,5.1,7.2,8.07,10.46c0.67,0.73,1.36,1.5,2.11,2.29l0.01,0c0.2,0.22,0.41,0.45,0.62,0.67c3.19,3.38,6.94,6.96,10.78,8.73
			c0.89,0.4,1.58,0.48,2.11,0.31c0.23-0.06,0.43-0.18,0.62-0.32c1.26-1.06,1.33-3.95,1.53-6.03c0.42-4.27,0.33-8.59,0.06-12.87
			c-0.21-3.32-0.52-6.64-0.95-9.94c-0.05-0.38-0.1-0.76-0.16-1.14c-0.74-5.25-1.81-10.45-3.27-15.52c-0.09-0.34-0.19-0.67-0.29-1.01
			c-1.31-4.39-2.92-8.67-4.9-12.82c-0.52-1.1-1.07-2.19-1.66-3.26c-0.09-0.19-0.2-0.39-0.32-0.59c-1.89-3.47-4.05-6.81-6.47-9.94
			c-0.14-0.2-0.3-0.39-0.45-0.58c-0.89-1.13-1.82-2.23-2.78-3.31c-1.85-2.07-3.84-4.03-5.95-5.84c-0.21-0.18-0.41-0.35-0.62-0.53
			c-0.43-0.36-0.86-0.71-1.3-1.06c-1.64-1.3-4.15-3.92-6.27-4.21c-0.07-0.01-0.15-0.02-0.21-0.02c-0.17-0.03-0.33-0.05-0.46-0.07
			C69.02,22.72,69.32,22.97,68.94,24.65z"/>
		<path class="st3" d="M70.66,42.7c-0.86-0.88-1.75-1.74-2.64-2.58c-0.02,0.36-0.03,0.71-0.04,1.07c0.01,0.01,0.02,0.01,0.02,0.03
			c1.26,1.21,2.47,2.49,3.61,3.81c1.06,1.22,2.16,2.38,3.02,3.76c0.45,0.74,1.04,1.35,1.47,2.1c0.33,0.59,0.6,1.21,0.81,1.87
			c0.21,0.69,0.44,1.37,0.67,2.06c0.46,1.41,0.94,2.81,1.43,4.2c0.49,1.37,0.98,2.73,1.49,4.09c0.47,1.28,1.14,2.59,1.36,3.94
			c-1.69-1.27-3.4-2.53-5.05-3.86c-0.84-0.68-1.67-1.38-2.48-2.1c-0.4-0.36-0.81-0.73-1.2-1.11c-0.15-0.14-1.21-1-1.17-1.16
			c-1.36-1.42-2.61-2.94-3.79-4.53c0.02,0.26,0.04,0.5,0.07,0.74c0.5,0.63,1.02,1.25,1.55,1.86c1.85,2.14,3.83,4.17,5.96,6.04
			c1.08,0.96,2.18,1.87,3.33,2.74c1.1,0.83,2.4,1.6,3.3,2.64c0.39,0.44,0.53,1.06,0.75,1.6c0.49,1.23,1,2.47,1.51,3.71
			c1.03,2.5,2.11,4.99,3.21,7.48c-4.81-2.89-9.55-5.6-13.9-9.22c-1-0.82-1.96-1.68-2.88-2.57c0.14,0.47,0.27,0.93,0.44,1.39
			c0.75,0.66,1.52,1.3,2.28,1.92c4.33,3.51,9.17,6.97,14.35,9.12c2.05,4.58,4.22,9.13,6.52,13.59c-4.98-2.42-10.17-4.44-15.02-7.13
			c0.25,0.43,0.51,0.83,0.77,1.24c4.74,2.56,9.82,4.61,14.63,6.59c1.32,2.56,2.71,5.08,4.13,7.59c-2.86,0.07-5.74-0.49-8.57-1.43
			c0.2,0.22,0.41,0.45,0.62,0.67c2.67,0.88,5.51,1.51,8.21,1.21c1.51,2.66,3.07,5.28,4.69,7.84c0.23-0.06,0.43-0.18,0.62-0.32
			c-1.47-2.53-2.92-5.08-4.36-7.66c0.06-0.27,0.08-0.54,0.11-0.81c0.01-0.02,0.04-0.03,0.04-0.06c1.23-6.94,2.76-13.64,4.84-20.31
			c-0.05-0.38-0.1-0.76-0.16-1.14c-2.51,6.82-4.33,14.08-5.15,21.26c-0.02,0.13-0.05,0.25-0.06,0.38c-1.32-2.37-2.62-4.75-3.89-7.14
			c0-0.02,0.02-0.03,0.02-0.05c0.47-6.28,1.04-12.46,2.44-18.62c0.88-3.87,2.03-7.64,3.37-11.35c-0.09-0.34-0.19-0.67-0.29-1.01
			c-3.7,9.54-5.91,20.1-6,30.17c-2.38-4.5-4.66-9.04-6.83-13.66c0.03-0.03,0.06-0.09,0.06-0.16c0.16-6.31,0.47-12.47,1.82-18.67
			c1.04-4.73,2.55-9.31,4.38-13.78c-0.09-0.19-0.2-0.39-0.32-0.59c-4.43,9.97-6.93,21.46-6.37,32.29c-1.41-3-2.76-6.02-4.05-9.07
			c-0.64-1.51-1.36-3.03-1.89-4.58c-0.45-1.29-0.29-2.73-0.21-4.07c0.08-1.28,0.19-2.57,0.34-3.85c0.28-2.52,0.71-5.02,1.27-7.49
			c1.04-4.52,2.54-8.94,4.44-13.17c-0.14-0.2-0.3-0.39-0.45-0.58c-4.1,8.2-6.34,17.64-6.32,26.75c-0.01-0.03-0.02-0.07-0.04-0.09
			c-1.18-3.06-2.3-6.16-3.33-9.27c-0.37-1.09-0.66-2.19-1.04-3.26c-0.35-1-0.52-2.05-0.58-3.1c-0.13-2.05,0.18-4.13,0.36-6.15
			c0.24-2.73,0.56-5.45,1.02-8.15c0.34-1.98,0.75-3.94,1.21-5.88c-0.21-0.18-0.41-0.35-0.62-0.53c-1.59,6.4-2.52,13.1-2.68,19.57
			c-2.33-8.13-4.09-16.42-5.1-24.86c-0.17-0.03-0.33-0.05-0.46-0.07c0.37,3.31,0.88,6.61,1.5,9.88c0.53,2.81,1.15,5.6,1.84,8.38
			c0.64,2.61,1.47,5.14,1.84,7.81c-0.77-1.02-1.33-2.2-2.13-3.23C72.47,44.65,71.58,43.66,70.66,42.7z"/>
	</g>
	<g>
		<path class="st5" d="M126.67,94.97c-0.25-0.23-0.47-0.48-0.65-0.74c-0.04-0.05-0.08-0.11-0.12-0.16
			c-0.08-0.12-0.14-0.24-0.18-0.35c-0.07-0.17-0.1-0.35-0.12-0.52c-0.01-0.05-0.01-0.09,0-0.15c-0.01-0.39,0.13-0.78,0.37-1.17
			c3.7-6.14,33.81-13.74,38.37-14.56c10.36-1.86,23.06-1.42,33.33,0.67c3.02,0.6,5.8,1.62,6.75,2.97c0.13,0.18,0.23,0.37,0.29,0.56
			c0.06,0.21,0.09,0.43,0.06,0.66c-0.03,0.3-0.15,0.6-0.37,0.92c-0.54,0.82-1.73,1.72-3.72,2.68c-11.09,5.34-22.83,9.3-34.91,11.73
			c-6.67,1.35-13.52,2.13-20.33,1.79C141.38,99.1,130.45,98.43,126.67,94.97z"/>
		<path class="st4" d="M162.6,94.03c-12.21,1.96-24.5,2.4-36.58,0.2c0.18,0.26,0.4,0.51,0.65,0.74c11.83,2.16,24.17,1.44,35.96-0.45
			c14.18-2.26,28.48-5.8,41.77-11.43c0.22-0.32,0.34-0.62,0.37-0.92c-26.42-1.09-53.38,2.37-78.62,10.18
			c5.28-3.15,11.54-4.59,17.41-6.21c7.36-2.02,14.8-3.78,22.34-4.98c7.11-1.13,14.31-1.74,21.51-1.59
			c5.54,0.12,11.69,0.47,17.3,1.93c-0.06-0.2-0.15-0.38-0.29-0.56c-4.98-1.23-10.33-1.58-15.26-1.78c-7.79-0.32-15.6,0.31-23.3,1.52
			c-7.58,1.19-15.06,2.96-22.46,4.99c-5.86,1.61-12.16,3.01-17.43,6.19c-0.25,0.39-0.38,0.79-0.37,1.17
			c25.69-7.58,51.98-11.06,78.7-10.4l-0.08,0.03c-26.09,4.56-52.18,8.94-78.62,10.52c0.01,0.18,0.05,0.35,0.12,0.52
			c25.74-1.23,51.3-5.65,76.61-10.26C189.59,88.49,176.1,91.88,162.6,94.03z"/>
	</g>
	<g>
		<path class="st5" d="M166.14,34.19c0.55,2.95-0.6,7.19-1.02,10.16c-0.51,3.58-1.19,7.13-2.23,10.6
			c-3.4,11.34-10.71,21.38-20.2,28.41c-1.99,1.47-9.12,6.88-13.12,7.58l-0.01,0c-0.67,0.12-1.26,0.1-1.72-0.11
			c-0.04-0.01-0.07-0.02-0.11-0.04c-2.96-1.51,1.57-11.85,2.26-13.95c2.47-7.45,5.6-14.72,9.75-21.4
			c3.28-5.27,7.23-10.17,11.83-14.37c2.41-2.19,5-4.2,7.76-5.94c1.04-0.65,2.45-1.75,3.74-2.33c0.4-0.19,0.78-0.31,1.14-0.36
			c0.02,0,0.04-0.01,0.07-0.01c0.19-0.02,0.37-0.02,0.55,0.01c0.23,0.05,0.45,0.14,0.63,0.31c0.14,0.13,0.27,0.28,0.36,0.49
			C165.96,33.49,166.06,33.81,166.14,34.19z"/>
		<path class="st4" d="M165.46,32.76c-0.02,0.08-0.04,0.16-0.06,0.24c-5.1,10.96-10.81,21.57-17.44,31.71
			c-5.4,8.25-11.4,15.94-17.74,23.38c1.16-2.75,2.54-5.42,3.93-8.09c2.98-5.74,6.19-11.36,9.62-16.86
			c6.58-10.51,14.75-20.03,21.07-30.69c-0.17-0.04-0.36-0.04-0.55-0.01c-7.06,10.84-15.18,20.92-21.97,31.94
			c-3.47,5.63-6.71,11.41-9.7,17.32c-1.2,2.38-2.45,4.82-3.47,7.33c0.73-3.64,1.66-7.22,2.96-10.78c2.2-6.01,5.08-11.76,8.45-17.2
			c6.6-10.64,15.01-19.68,23.67-28.61c-0.36,0.05-0.74,0.17-1.14,0.36c-8.88,8.55-17.04,18.15-23.46,28.63
			c-5.39,8.78-10.06,18.99-11.75,29.39c-0.01,0-0.01,0.01-0.02,0.01c0.45,0.2,1.04,0.23,1.72,0.11l0.01,0
			c3.55-2.41,6.87-5.39,9.79-8.22c4.57-4.43,8.61-9.41,12.07-14.75c6.82-10.54,11.41-22.43,14.35-34.61
			c0.01-0.03,0.03-0.08,0.04-0.11C165.73,33.04,165.6,32.88,165.46,32.76z M151.39,66.97c-3.46,5.44-7.51,10.53-12.13,15.03
			c-2.22,2.16-4.57,4.18-7.05,6.04c-0.65,0.49-1.33,0.95-2.01,1.4c6.61-7.73,12.64-16.04,18.16-24.48
			c6.09-9.31,11.62-19.07,16.31-29.2C161.66,46.72,157.51,57.33,151.39,66.97z"/>
	</g>
	<path class="st3" d="M80,88.43c-4.22-5.93-8.54-11.81-12.97-17.59C58.19,59.31,48.47,47.82,36.2,39.8
		c-0.58-0.38-1.09,0.5-0.55,0.91c24.06,18.05,41.34,44.58,56.32,70.22c0.48,0.82,1.58,0.13,1.25-0.69
		C90.1,102.41,84.87,95.25,80,88.43z"/>
	<g>
		<path class="st6" d="M160.29,111c-0.63,0.2-1.53,0.32-2.58,0.32c-4.65,0.04-12.33-1.85-13.79-5.46c-0.09-0.19-0.14-0.4-0.18-0.6
			c-0.21-1.04,0.1-2.22,1.13-3.53c2.89-3.66,7.61-6.43,12.04-7.75c1.24-0.37,2.88-0.52,3.54,0.59c0.61,1.04-0.16,2.35-0.98,3.23
			c-0.64,0.68-1.34,1.3-2.1,1.86c-0.58,0.45-1.2,0.85-1.84,1.2c-0.23,0.13-0.46,0.26-0.7,0.37c1.98-0.47,4.1-0.4,6.04,0.25
			c1.17,0.39,2.46,1.37,2.15,2.56c-0.25,0.95-1.37,1.34-2.33,1.51c-1.06,0.19-2.13,0.29-3.2,0.28c0.24,0.06,0.47,0.14,0.69,0.23
			c0.16,0.05,0.32,0.13,0.47,0.2c0.22,0.1,0.45,0.21,0.68,0.33c0.83,0.42,1.7,0.98,2.15,1.74c0.35,0.59,0.42,1.38,0.02,1.93
			C161.2,110.65,160.74,110.85,160.29,111z"/>
		<path class="st7" d="M159.32,106.6c-5.12,0.14-10.4,0.2-15.4-0.74c-0.09-0.19-0.14-0.4-0.18-0.6c4.17-2.57,8.87-4.3,13.63-5.6
			c-0.58,0.45-1.2,0.85-1.84,1.2c-3.79,1.18-7.47,2.56-10.95,4.56c4.47,0.71,9.05,0.66,13.6,0.65c0.16,0.05,0.32,0.13,0.47,0.2
			C158.86,106.37,159.08,106.48,159.32,106.6z"/>
	</g>
	<g>
		<g>
			<path class="st8" d="M138.5,74.39c-0.04-3.18,0.82-6.47,2.98-8.79c1.65-1.76,3.91-2.82,6.18-3.7c2.42-0.94,4.9-1.71,7.43-2.3
				c0.36-0.08,0.76-0.16,1.07,0.03c0.32,0.2,0.44,0.6,0.49,0.97c0.17,1.23-0.03,2.49,0.27,3.7c0.35,1.39,1.32,2.55,1.75,3.91
				c0.52,1.64,0.2,3.45-0.55,4.98c-0.75,1.53-1.9,2.83-3.09,4.06c-1.71,1.76-3.53,3.42-5.45,4.95c-2.04,1.62-6.7,4.69-9.19,1.98
				c-0.82-0.9-0.79-2.62-1.03-3.74C138.94,78.44,138.52,76.45,138.5,74.39z"/>
			<path class="st8" d="M136.32,94.45c-0.88,1.81-1.55,3.82-1.21,5.8c0.46,2.67,2.66,4.69,4.94,6.17c2.28,1.47,4.81,2.65,6.64,4.65
				c0.76-1.71,1.71-3.33,2.84-4.83c0.74-0.98,1.55-1.9,2.19-2.94c1.98-3.22,2.11-7.49,0.31-10.82c-1.37-2.54-5.29-6.18-8.52-5.48
				C140.35,87.68,137.62,91.78,136.32,94.45z"/>
			<path class="st8" d="M138.93,84.45c2.91-2.79,2.15-9.98,1.45-13.06c-0.3-1.32-0.72-2.64-1.47-3.77c-1.56-2.34-4.35-3.56-7.1-4.18
				c-1.71-0.39-3.46-0.6-5.21-0.63c-1.11-0.02-3.66-0.37-4.65,0.06c-1.89,0.8-1.5,5.05-1.86,6.8c-0.82,3.96-0.6,7.85,2.61,10.72
				c1.89,1.69,4.37,2.52,6.77,3.32c1.47,0.48,2.95,0.97,4.42,1.45c0.66,0.22,1.33,0.44,2.02,0.44
				C137.21,85.59,138.19,85.17,138.93,84.45z"/>
			<path class="st8" d="M147.81,80.45c1.18-1.25,2.42-2.46,3.87-3.36c3.95-2.45,9.4-2.23,13.13,0.55c1.68,1.24,3.39,2.63,4.81,4.16
				c1.06,1.14,1.24,1.17,0.21,2.25c-1.39,1.45-3.01,2.46-4.22,4.15c-1.57,2.21-2.7,4.86-4.95,6.37c-2.24,1.5-5.27,1.52-7.77,0.51
				c-2.5-1.02-4.54-2.95-6.16-5.11c-0.88-1.17-2.47-2.92-2.34-4.5C144.56,83.64,146.66,81.68,147.81,80.45z"/>
			<path class="st8" d="M119.91,98.71c-0.24,0.06-0.54,0.13-0.72-0.04c-0.07-0.06-0.11-0.15-0.15-0.24
				c-1.11-2.51-0.9-5.46,0.07-8.03c0.98-2.57,2.67-4.8,4.5-6.84c1.74-1.94,3.85-3.84,6.44-4.07c2.14-0.19,4.2,0.79,6.05,1.88
				c2.26,1.33,4.6,3.15,4.94,5.75c0.45,3.48-2.6,6.08-4.86,8.19c-0.7,0.65-1.41,1.31-2.26,1.75
				C129.66,99.29,124.41,97.52,119.91,98.71z"/>
		</g>
		<g>
			<path class="st9" d="M156.62,76c-3.53,0.31-7.98,2.41-9.9,5.51c-0.1,0.16,0.13,0.32,0.26,0.2c1.43-1.29,2.65-2.62,4.34-3.62
				c1.67-0.99,3.45-1.47,5.34-1.87C156.77,76.2,156.75,75.99,156.62,76z"/>
			<path class="st9" d="M139.75,68.9c-0.05-0.13-0.26-0.04-0.22,0.09c0.78,2.7,0.22,5-0.14,7.7c-0.02,0.18,0.22,0.25,0.27,0.07
				C140.38,74.3,140.78,71.34,139.75,68.9z"/>
			<path class="st9" d="M133.15,82.34c-2.28-0.94-4.99-0.76-7.2,0.3c-0.12,0.06-0.03,0.26,0.09,0.21c2.36-0.92,4.59-0.93,7.01-0.25
				C133.19,82.63,133.29,82.4,133.15,82.34z"/>
			<path class="st9" d="M138.08,90.52c0.02-0.15-0.22-0.17-0.25-0.03c-0.48,1.93-1.33,3.4-2.75,4.79c-0.13,0.13,0.06,0.31,0.2,0.2
				C136.82,94.31,137.86,92.44,138.08,90.52z"/>
			<path class="st9" d="M155.25,95.06c-3.88-1.31-6.83-3.53-8.95-7.07c-0.08-0.13-0.28-0.02-0.21,0.12c1.8,3.48,5.25,6.32,9.1,7.19
				C155.35,95.35,155.41,95.11,155.25,95.06z"/>
		</g>
		<g>
			<path class="st10" d="M148.34,79.55c1.37,1.38,0.09,2.59,0.49,4.15c0.15,0.57,0.52,1.1,0.47,1.68c-0.03,0.34-0.2,0.64-0.36,0.94
				c-0.54,0.95-1.07,1.91-1.61,2.86c-0.69,1.23-1.46,2.53-2.74,3.12c-1.3,0.6-2.81,0.32-4.2,0.03c-2.74-0.57-7.19-2.29-8.13-5.35
				c-0.4-1.32-0.73-3.84-0.27-5.15c0.61-1.74,2.51-2.7,3.25-4.4c1.5-3.41,6.91-2.61,9.25-0.66c0.73,0.61,1.34,1.38,2.18,1.83
				c0.5,0.27,1.07,0.42,1.5,0.79C148.22,79.43,148.28,79.49,148.34,79.55z"/>
			<path class="st1" d="M143.06,84.62c-0.72,2.36-4.6,2.19-4.77-0.39c-0.04-0.59,0.23-1.17,0.63-1.6
				C140.58,80.9,143.85,82.01,143.06,84.62z"/>
		</g>
	</g>
	<g>
		<path class="st8" d="M107.21,60.09c0.62-0.35,1.49-0.6,1.96-0.07c0.37,0.41,0.25,1.05,0.09,1.58c-0.76,2.48-2.13,4.78-3.96,6.63
			c0.69-1.32,2.2-2,3.67-2.22c1.66-0.24,3.72,0.27,4.2,1.87c0.36,1.21-0.42,2.52-1.48,3.19c-1.07,0.67-2.36,0.85-3.61,1.02
			c2.07-0.47,4.39,0.66,5.31,2.57c1.21,2.54-2.56,3.6-4.47,3.41c-1.82-0.17-3.5-1.1-4.9-2.28c0.3,1.12,0.61,2.26,0.49,3.41
			c-0.12,1.15-0.76,2.32-1.85,2.73c-1.09,0.41-2.4-0.1-3.09-1.03c-1.28-1.73-0.59-4.05,0.54-5.65c-1.05,1.25-3.01,3.02-4.76,2.76
			c-1.26-0.18-3.76-0.8-3.24-2.61c0.13-0.43,0.45-0.77,0.77-1.08c1.28-1.23,2.84-2.36,4.61-2.36c-1.76-2.29-4.24-4.9-4.25-7.97
			c0-1.05,0.28-2.2,1.14-2.8c1.04-0.73,2.56-0.34,3.49,0.53c1.06,1,1.41,2.41,2.09,3.64c0.73,1.31,1.37,2.67,2.06,4.01
			c-0.58-1.11,0.83-4.69,1.39-5.7C104.22,62.25,105.8,60.92,107.21,60.09z"/>
		<path class="st10" d="M103.99,69.96c0.95,0.29,1.81,1.02,2,2c0.05,0.28,0.04,0.55-0.02,0.82c-0.18,0.81-0.82,1.52-1.61,1.81
			C99.76,76.23,99.59,68.61,103.99,69.96z"/>
	</g>
	<path class="st3" d="M42.48,124.02c-0.36,0.34-0.46,0.82-0.58,1.29c-0.1,0.41-0.34,0.75-0.39,1.17c-0.05,0.49,0.05,0.97,0.19,1.44
		c0.05,0.18,0.3,1.14,0.45,1.19c0.06,0.02,0.1,0.06,0.07,0.13c0,0.01-0.01,0.02-0.01,0.03c0.35,0.9,0.62,1.84,0.72,2.77
		c0.07,0.64,0,1.19-0.15,1.81c-0.28,1.14-0.47,2.13-0.35,3.32c0.01,0.12-0.16,0.23-0.26,0.14c-2.06-1.93-1.28-5.18-0.47-7.54
		c0.01-0.02,0.02-0.02,0.03-0.03c0.05-0.14,0.11-0.28,0.18-0.41c-0.2-0.52-0.43-1.05-0.65-1.55c0.08,0.19-0.36,0.87-0.44,1.06
		c-0.17,0.43-0.32,0.86-0.53,1.27c-2.51,4.78-6.59,8.32-11.56,10.38c-0.21,0.09-0.34-0.17-0.24-0.33c1.42-2.27,2.91-4.55,4.93-6.35
		c1.95-1.74,4.4-2.74,6.59-4.11c0.84-1.75,1.45-3.62,1.8-5.52c-3.12,1.09-6.29,2.03-9.47,2.87c-0.85,0.22-1.97,0.27-2.65,0.83
		c-0.78,0.66-1.31,1.55-2.02,2.28c-0.57,0.59-1.37,1.1-1.77,1.8c-0.37,0.63-0.43,1.46-0.71,2.15c-0.25,0.66-0.58,1.28-0.97,1.87
		c-1.81,2.73-4.83,4.24-8.07,4.31c-0.13,0-0.23-0.18-0.1-0.26c3.79-2.31,5.9-6.67,9.86-8.7c0.61-0.31,1.13-0.92,1.61-1.41
		c0.66-0.68,1.27-1.4,1.85-2.15c-3.41,0.79-6.85,1.43-10.3,1.89c-0.01,0.01-0.01,0.02-0.03,0.03c-4.01,2.78-9.22,4.15-13.83,2.07
		c-0.14-0.06-0.11-0.24,0.01-0.3c2.28-1.11,4.75-1.88,7.26-2.26c1.27-0.19,2.56-0.29,3.84-0.26c0.64,0.01,1.28,0.05,1.92,0.12
		c0.54,0.06,1.16,0.25,1.7,0.17c4.45-0.67,8.89-1.68,13.24-2.85c-0.02-0.02-0.04-0.04-0.06-0.06c-0.01-0.01-0.02,0-0.03-0.01
		c-4.7-4.23-12.12-1.77-16.67-6.22c-0.09-0.09-0.05-0.24,0.08-0.26c3.59-0.63,9-0.06,10.92,3.55c0.01,0.02,0,0.03,0,0.04
		c1.03,0.2,2.04,0.47,2.99,0.87c-0.4-1.42-0.89-2.31-1.92-3.38c-0.51-0.53-0.96-1.09-1.3-1.76c-0.62-1.24-0.73-2.52-0.63-3.89
		c0.01-0.17,0.24-0.18,0.33-0.08c1.69,1.84,3.08,3.95,2.84,6.54c-0.01,0.07-0.05,0.11-0.1,0.12c0.22-0.06,1.04,2.29,1.21,2.53
		c0.17,0.24,0.44,0.35,0.7,0.53c0.53,0.36,1.03,0.77,1.58,1.11c0.72,0.45,1.85-0.13,2.56-0.34c5.36-1.58,10.58-3.52,15.65-5.78
		c-1.19-1.64-2.66-2.92-4.32-4.01c-0.76-0.05-1.62-0.12-2.39,0.04c-1.29,0.27-1.65,1.06-2.49,1.88c-0.7,0.68-1.56,1.18-2.5,1.45
		c-1.8,0.51-3.55,0.06-5.06-0.96c-0.12-0.08-0.05-0.24,0.05-0.29c2.7-1.33,5.83-2.84,8.92-2.08c0.87-0.44,1.98-0.44,2.96-0.36
		c-0.24-0.15-0.5-0.3-0.75-0.45c-1.03-0.58-2.08-1.12-3.13-1.64c-0.88-0.43-1.82-1.08-2.8-1.2c-0.95-0.12-1.87-0.23-2.83-0.25
		c-0.99-0.01-1.99-0.01-2.95-0.26c-1.69-0.44-3.21-1.24-4.58-2.32c-0.12-0.1-0.05-0.28,0.1-0.3c2.13-0.27,4.22-0.22,6.29,0.37
		c1.02,0.29,2,0.7,2.93,1.22c0.99,0.56,1.83,1.26,2.77,1.89c0.51,0.34,1.1,0.55,1.65,0.81c1.18,0.56,2.35,1.17,3.46,1.85
		c-0.23-0.8-0.46-1.62-0.71-2.43c-0.06,0.03-0.14,0.03-0.19-0.04c-0.97-1.12-3.31-3.6-2.54-5.25c0.05-0.1,0.17-0.13,0.25-0.07
		c1.48,1.19,2.24,3.16,2.79,5.12c0.01,0.01,0.02,0.02,0.03,0.02c0.04,0.05,0.04,0.1,0.02,0.15c0.25,0.94,0.47,1.86,0.69,2.7
		c0.03,0.13,0.59,0.39,0.71,0.48c0.26,0.18,0.51,0.36,0.76,0.56c1.12,0.86,2.16,1.85,3.24,2.76c0.47,0.4,1.08-0.04,1.56-0.26
		c0.82-0.37,1.63-0.78,2.43-1.18c2.59-1.27,5.21-2.67,7.69-4.19c1.24-0.76,2.57-1.53,3.7-2.45c0.49-0.4,0.5-0.63,0.06-1.1
		c-0.27-0.29-0.82-0.84-1.25-0.86c-1.5-0.04-2.95-0.2-4.3,0.62c-0.95,0.57-1.65,1.31-2.72,1.67c-1.89,0.62-3.91,0.29-5.68-0.55
		c-0.17-0.08-0.14-0.3,0.01-0.37c2.39-1.16,5.15-1.82,7.81-1.5c0.02-0.03,0.06-0.06,0.1-0.05c0.28,0.06,0.57,0.08,0.83,0.22
		c1.08-0.42,2.25-0.47,3.44-0.34c-0.77-0.45-1.58-0.84-2.41-1.21c-0.59-0.26-1.15-0.49-1.73-0.65c-0.04,0.01-0.09,0-0.12-0.03
		c-0.44-0.11-0.9-0.17-1.4-0.18c-0.63,0-1.26,0.03-1.89-0.01c-3.07-0.21-5.95-1.43-8.3-3.39c-0.11-0.09-0.06-0.31,0.09-0.31
		c4.21-0.06,8.72,0.13,11.66,3.54c1.11,0.28,2.18,0.87,3.18,1.37c0.91,0.45,1.78,0.98,2.58,1.61c0.78,0.62,1.19,0.63,2.09,0.21
		c0.82-0.39,1.57-0.91,2.31-1.44c5.02-3.6,9.84-7.48,14.42-11.63c0.17-0.16,0.35-0.32,0.58-0.4c0.18-0.07,0.56-0.08,0.67,0.13
		c0.19,0.32-0.24,0.55-0.44,0.74c-0.56,0.53-1.13,1.05-1.7,1.56c-1.14,1.03-2.31,2.03-3.49,3.01c-2.37,1.95-4.82,3.81-7.32,5.59
		c-0.71,0.5-1.72,1.06-1.72,2.07c0,0.51,0.31,1.12,0.41,1.62c0.11,0.57,0.19,1.15,0.23,1.73c0.02,0.29,0.03,0.58,0.03,0.88
		c0,0.15-0.1,0.69-0.02,0.8c0.04,0.06,0.05,0.14,0,0.21c-0.28,4.53-2.56,9.09-5.48,12.3c-0.1,0.11-0.27,0.05-0.29-0.08
		c-0.73-4.84,2.41-8.9,5.39-12.35c0.09-1.91-0.13-3.82-0.78-5.65c0.05,0.13-2.54,1.68-2.8,1.85c-0.97,0.62-1.94,1.23-2.93,1.83
		c-0.99,0.6-1.98,1.18-2.98,1.75c-0.91,0.52-1.63,0.89-2.21,1.82c-0.32,0.52-0.35,1.25-0.48,1.87c-0.15,0.7-0.32,1.39-0.51,2.08
		l0.01,0.01c0.7,1.31,1.27,2.72,1.71,4.16c0.05,0.03,0.08,0.08,0.06,0.16c0,0.01,0,0.02-0.01,0.03c0.45,1.54,0.74,3.12,0.85,4.72
		c0.05,0.81,0.06,1.62,0.02,2.43c-0.02,0.38-0.03,0.79-0.1,1.17c-0.19,0.92-1.07-0.47-1.18-0.75c-0.28-0.72-0.39-1.5-0.47-2.27
		c-0.17-1.69,0.13-3.38,0.51-5.04c-0.39-1.39-0.89-2.75-1.54-4.09c0.11,0.22-0.38,1.21-0.46,1.45c-0.16,0.48-0.33,0.96-0.52,1.44
		c-0.37,0.99-0.79,1.96-1.23,2.91c-2.37,5.06-5.66,9.64-9.74,13.45c-0.01,0.01-0.02,0.01-0.03,0.01c0.01,0.15-0.21,0.17-0.23,0.02
		c-0.32-2.07,1.67-4.18,2.84-5.68c1.67-2.13,3.59-4.15,5.72-5.84c0.84-1.6,1.55-3.24,2.16-4.9c-1.26,0.83-2.56,1.59-3.79,2.45
		c-0.98,0.69-1.56,1.73-2.52,2.45c-1.82,1.37-4.21,1.6-6.4,1.46c-0.17-0.01-0.18-0.23-0.08-0.32c2.38-2.1,5.3-3.44,8.48-3.72
		c0.03,0,0.06,0.01,0.09,0.02c1.32-1.08,2.97-1.91,4.37-2.75c0.85-2.38,1.52-4.83,2.1-7.35c-1.33,0.72-2.68,1.42-4.04,2.09
		c-2.67,1.32-5.38,2.55-8.13,3.69c-1.38,0.57-2.76,1.11-4.16,1.63C43.74,123.46,42.92,123.6,42.48,124.02z"/>
	<g>
		<path class="st3" d="M130.1,152.99c-15.89-11.78-30.31-27.57-39.73-45.21c5.77,15.34,9.83,31.83,12.2,47.91
			c0.08,0.56-0.76,0.61-0.87,0.07c-3.65-18.06-8.54-35.26-14.33-52.73c-0.22-0.65,0.75-0.99,1-0.36c0.02,0.04,0.03,0.09,0.05,0.13
			c0.19-0.07,0.4-0.04,0.52,0.16c11.17,19.18,24.17,35.56,41.63,49.46C130.95,152.72,130.48,153.27,130.1,152.99z"/>
		<path class="st3" d="M86.83,102.56c3.61,8.66,5.13,18.42,6.71,27.63c1.79,10.41,3.46,20.81,6.02,31.06
			c0.11,0.45-0.56,0.71-0.7,0.25c-2.7-9.11-4.34-18.48-6.06-27.82c-1.92-10.41-4.49-20.48-7.21-30.68
			C85.38,102.19,86.5,101.77,86.83,102.56z"/>
	</g>
	<g>
		<path class="st4" d="M96.03,108.4c-4.06-0.63-7.15,4.28-10.23,6.43c-1.74,1.22-3.5,2.44-5,3.95c-0.48,0.48-0.96,1.05-0.97,1.73
			c-0.01,0.68,0.75,1.35,1.34,1.01c-1.95,0.95-3.84,2.01-5.67,3.17c-1.57,1.01-3.12,1.45-4.81,2.25c-0.39,0.18-0.79,0.38-1.07,0.71
			c-0.27,0.33-0.38,0.84-0.13,1.19c0.18,0.25,0.48,0.36,0.78,0.44c0.84,0.23,1.72,0.32,2.59,0.26c-1.95,1.65-3.78,2.7-6.23,3.35
			c-1.04,0.27-2.1,0.48-3.07,0.94c-0.97,0.46-1.85,1.22-2.18,2.23c-0.06,0.18-0.1,0.4,0,0.56c0.09,0.15,0.27,0.21,0.44,0.26
			c1.54,0.45,3.19,0.27,4.79,0.08c-1.49,0.98-3.17,2.22-4.91,2.7c-1.39,0.38-2.65,0.43-3.97,1.2c-1.03,0.6-1.93,1.51-2.23,2.66
			c-0.07,0.26-0.1,0.56,0.04,0.79c0.15,0.25,0.46,0.35,0.74,0.41c1.88,0.42,3.84,0.07,5.73-0.29c-1.75,1.89-3.73,3.97-5.93,5.33
			c-1.38,0.85-4.2,1.93-4.27,3.95c-0.06,1.62,2.18,2.11,3.42,2.01c4.4-0.35,5.94-5.29,8.13-8.31c0.24-0.33,0.74-0.66,0.97-0.32
			c0.06,0.1,0.07,0.22,0.07,0.33c0.01,1.71-0.72,3.34-0.82,5.04c-0.02,0.29-0.01,0.59,0.14,0.84c0.25,0.41,0.82,0.51,1.27,0.36
			c0.45-0.15,0.8-0.5,1.13-0.85c1.44-1.55,2.64-3.3,3.58-5.2c0.71-1.44,0.9-3.37,2.26-4.36c0.13-0.1,0.29-0.19,0.45-0.17
			c0.51,0.08,0.21,0.92,0.46,1.38c0.31,0.58,1.2,0.21,1.64-0.28c2.48-2.83,4.38-6.91,5.64-10.44c1.08,0.53,0.03,2.96,1.5,3.1
			c0.46,0.04,0.9-0.22,1.26-0.51c2.19-1.77,3.38-5.36,3.68-8.09c0.14-1.25,0.18-2.55,0.75-3.67c0.07-0.13,0.15-0.27,0.29-0.32
			c0.39-0.16,0.64,0.4,0.92,0.72c0.4,0.45,1.16,0.42,1.66,0.09c0.51-0.33,0.83-0.87,1.13-1.39c1.63-2.81,3.03-5.75,4.26-8.76
			C96.27,113.25,99.07,108.87,96.03,108.4z"/>
		<path class="st3" d="M56.93,152.87c3.96-2.45,6.22-6.45,9.11-9.95c3.33-4.02,7.5-7.44,11.36-10.93
			c7.32-6.6,14.56-13.67,18.96-22.62c0.19-0.39-0.4-0.72-0.59-0.33c-4.39,8.95-11.61,15.82-18.84,22.49
			c-3.72,3.43-7.7,6.68-10.99,10.55c-3.01,3.54-5.17,7.98-9.15,10.57C56.67,152.75,56.79,152.96,56.93,152.87z"/>
	</g>
	<g>
		<path class="st6" d="M99.07,94.89c-3.35-4.45-4.57-10.7-2.16-16.74c0.95-2.39,2.7-4.93,5.27-5.04c2.42-0.11,4.43,2.14,4.93,4.51
			c0.49,2.37-0.14,4.82-0.78,7.16c1.05-2.17,1.31-4.65,2.26-6.86c0.95-2.22,2.98-4.31,5.39-4.09c2.74,0.24,4.4,3.48,3.99,6.2
			c-0.41,2.72-2.24,4.99-4,7.11c2.16-2.89,5.36-4.99,8.86-5.83c0.91-0.22,1.93-0.34,2.73,0.14c1.66,1,1.11,3.58-0.02,5.15
			c-1.32,1.84-3.17,3.3-5.26,4.17c1.69-1.26,3.69-2.1,5.77-2.41c0.91-0.13,2.77-0.28,2.96,1.01c0.07,0.5-0.13,1-0.36,1.45
			c-2.32,4.57-7.09,7.36-11.88,9.18C109.58,102.72,102.92,100,99.07,94.89z"/>
		<path class="st10" d="M117.42,89.79c0.93,2.22,0,4.68-2.33,5.44c-2.34,0.76-5.86-0.45-8.06-1.63c-2.69-1.45-6.67-4.62-5.75-7.65
			c0.61-2.02,2.98-3.15,5.32-3.07c2.34,0.08,4.63,1.16,6.64,2.49C114.99,86.52,116.66,87.96,117.42,89.79z"/>
		<path class="st7" d="M93.74,83.83c0.27-1.94,1.25-3.83,2.89-4.88c0.45-0.29,0.98-0.52,1.51-0.46c0.64,0.07,1.16,0.55,1.59,1.03
			c2.21,2.48,3.38,5.86,3.16,9.17c-0.32-1.54,0.81-3.21,2.35-3.57c1.54-0.36,3.24,0.57,3.86,2.02c0.62,1.45,0.16,3.26-1,4.32
			c1-1.57,2.6-2.76,4.4-3.25c0.71-0.19,1.51-0.27,2.17,0.07c1.04,0.54,1.32,1.98,0.93,3.08c-0.39,1.1-1.26,1.95-2.11,2.76
			c2.44-2.41,6.08-3.53,9.45-2.9c1.35,0.25,2.84,0.98,3.09,2.34c0.1,0.54-0.02,1.1-0.22,1.62c-0.92,2.38-3.34,3.82-5.74,4.69
			c-6.17,2.23-12.94,2.34-18.35-1.55c-4.4-3.16-8.66-8.54-8.01-14.29C93.72,83.96,93.73,83.9,93.74,83.83z"/>
	</g>
	<g>
		<path class="st7" d="M141.85,119.66c-0.78-1.5-1.2-3.16-1.54-4.82c-0.39-1.88-1.3-4.09-1.11-6.02c0.01-0.17,0.04-0.33,0.09-0.49
			c0.05-0.25,0.14-0.5,0.26-0.72c0.07-0.18,0.17-0.33,0.28-0.48c0.1-0.14,0.21-0.26,0.32-0.37c0.21-0.21,0.46-0.37,0.74-0.48
			c0.47-0.18,0.99-0.2,1.49-0.16c4.03,0.27,8.96,2.47,11.72,5.43c0.68,0.73,1.29,1.81,0.78,2.66c-0.44,0.73-1.44,0.83-2.29,0.75
			c-0.93-0.1-1.86-0.33-2.73-0.68c-0.55-0.22-1.08-0.48-1.57-0.8c-0.07-0.04-0.14-0.08-0.21-0.14c0.98,0.86,1.81,1.88,2.45,3.01
			c0.47,0.83,0.8,1.93,0.17,2.65c-0.42,0.48-1.16,0.58-1.76,0.39c-0.61-0.19-1.11-0.61-1.57-1.05c-0.37-0.36-0.73-0.73-1.06-1.13
			c0.17,0.35,0.32,0.72,0.44,1.08c0.11,0.34,0.2,0.69,0.27,1.05c0.19,0.93,0.23,1.89,0.1,2.82c-0.06,0.4-0.17,0.83-0.5,1.05
			c-0.36,0.22-0.82,0.11-1.21-0.06C143.83,122.5,142.64,121.17,141.85,119.66z"/>
		<path class="st6" d="M148.28,113.49c-2.64-2.34-5.44-4.43-8.46-6.36c0.1-0.14,0.21-0.26,0.32-0.37c3.51,2.07,6.8,4.64,9.71,7.53
			C149.3,114.07,148.78,113.81,148.28,113.49z"/>
		<path class="st6" d="M147.01,119.35c-2.95-3.35-5.59-7.07-7.72-11.01c0.05-0.25,0.14-0.5,0.26-0.72
			c2.13,3.77,4.48,7.32,7.19,10.69C146.85,118.64,146.94,119,147.01,119.35z"/>
	</g>
	<g>
		<path class="st11" d="M74.89,108.56c-4.68-3.77-9.35-7.55-14.11-11.16c-0.73-0.4-1.47-0.78-2.22-1.16
			c-0.07-0.04-0.09-0.1-0.08-0.16c-6.6-2.85-13.09-5.07-20.27-6.02c-7.33-0.97-14.74-0.89-22.1-0.32c-0.22,0.02-0.24-0.32-0.03-0.34
			c7.39-0.68,14.85-0.75,22.21,0.21c4.55,0.59,9.33,1.54,13.82,3.11c-5.99-2.9-12.12-5.38-18.6-7.14c-8.43-2.28-16.9-3.13-25.6-3.56
			c-0.2-0.01-0.24-0.32-0.02-0.32c8.59-0.28,17.44,1.17,25.72,3.38c8.26,2.2,16.49,5.36,23.83,9.8
			C47.38,87.51,36.81,81.04,24.7,77.07c-0.21-0.07-0.15-0.4,0.07-0.34c13.99,4.08,26.39,12.21,37.88,21.24
			c0.44,0.28,0.86,0.57,1.28,0.87c0.06,0.04,0.06,0.11,0.04,0.18c3.81,3.04,7.53,6.16,11.17,9.26
			C75.31,108.44,75.07,108.71,74.89,108.56z"/>
		<g>
			<path class="st12" d="M10.75,90.91c0.46,0.38,1.06,0.56,1.65,0.66c0.08,0.01,0.16,0.03,0.24,0.04c3.18,0.45,8.52-2.35,3.72-4.6
				c-1.27-0.59-3.04-0.95-4.4-0.47C10.24,87.14,9.08,89.5,10.75,90.91z"/>
			<path class="st1" d="M9.9,89.66c0.64-0.11,1.46-0.13,2.04-0.4c0.05-0.02,0.1-0.07,0.09-0.13c-0.06-0.52-0.97-0.53-1.35-0.66
				c-0.58-0.2-1.16-0.37-1.77-0.42c-0.41-0.03-0.83-0.15-1.14,0.15c-0.07,0.06,0,0.15,0.06,0.17c0.38,0.12,0.75,0.21,1.14,0.3
				c-0.26,0.07-0.53,0.14-0.79,0.21c-0.11,0.03-0.1,0.22,0.02,0.23c0.18,0.02,0.36,0.05,0.54,0.07c-0.15,0.14-0.3,0.24-0.49,0.36
				c-0.09,0.05-0.06,0.17,0.02,0.21C8.74,90.02,9.39,89.75,9.9,89.66z"/>
		</g>
		<g>
			<path class="st12" d="M4.79,78.24c-0.35,0.18-0.69,0.39-0.91,0.7c-0.38,0.53-0.33,1.28-0.03,1.86c0.3,0.58,0.82,1.01,1.37,1.36
				c1.96,1.26,4.38,1.66,6.71,1.58c3.32-0.12,4.51-2.86,1.62-4.53C10.84,77.63,7.79,76.71,4.79,78.24z"/>
			<path class="st1" d="M5.48,80.44c0.67-1.19-2.49-1.9-3.18-2c-0.66-0.09-1.55-0.25-2.2-0.03C0.06,78.43,0,78.48,0,78.53
				c-0.04,0.46,0.61,0.68,1.24,0.81c-0.23,0.06-0.46,0.13-0.7,0.22c-0.13,0.05-0.18,0.29-0.02,0.35c0.3,0.1,0.6,0.17,0.9,0.21
				c-0.24,0.14-0.47,0.3-0.69,0.5C0.58,80.75,0.65,81,0.86,80.99c0.99-0.03,1.97-0.09,2.95-0.18C4.22,80.78,5.22,80.89,5.48,80.44z"
				/>
		</g>
		<g>
			<path class="st12" d="M17.67,70.76c-0.31,0.1-0.62,0.24-0.85,0.46c-0.24,0.23-0.38,0.55-0.46,0.87
				c-0.39,1.55,0.58,3.15,1.81,4.17c2,1.67,9.86,3.63,7.13-1.37C23.93,72.39,20.6,69.82,17.67,70.76z"/>
			<path class="st1" d="M18.65,72.74c0-0.31-0.09-0.56-0.24-0.76c0.01-0.03,0.01-0.07-0.02-0.11c-0.45-0.64-1-1.22-1.65-1.65
				c-0.47-0.32-1.31-0.81-1.92-0.76c-0.74,0.06-0.24,0.6,0.35,1.06c-0.16-0.02-0.32-0.03-0.49-0.02c-0.15,0.01-0.23,0.19-0.15,0.31
				c0.16,0.22,0.33,0.4,0.52,0.55c-0.32-0.02-0.63-0.03-0.95-0.03c-0.15,0.01-0.24,0.21-0.15,0.33c0.35,0.47,1.12,0.54,1.66,0.69
				c0.92,0.26,1.84,0.46,2.77,0.63C18.54,73,18.65,72.89,18.65,72.74z"/>
		</g>
	</g>
	<g>
		<path class="st4" d="M53.56,62.38c0.08,0.09,0.16,0.18,0.24,0.27c0.26,0.28,0.51,0.57,0.76,0.87c0.35,0.43,0.7,0.88,1.02,1.36
			c0.09,0.11,0.17,0.22,0.25,0.34c0.68,0.98,1.31,2.02,1.89,3.11c0.07,0.14,0.15,0.27,0.21,0.41c0.57,1.1,1.09,2.25,1.53,3.43
			c0.07,0.17,0.13,0.33,0.19,0.51c0.53,1.46,0.96,2.95,1.26,4.43c0.05,0.24,0.1,0.49,0.14,0.73c0.18,1.02,0.3,2.02,0.35,3.01
			c0.11,1.99-0.61,3.78-1.83,5.11c-0.07,0.08-0.15,0.15-0.22,0.23c-1.03,1.03-2.36,1.76-3.81,2.04c-0.29,0.06-0.59,0.09-0.89,0.11
			c-0.35,0.02-0.71,0.02-1.07-0.01c-0.37-0.03-0.74-0.07-1.1-0.11c-0.22-0.02-0.45-0.05-0.67-0.07c0,0,0,0,0,0
			c-1.72-0.2-3.4-0.47-5.03-0.88c-0.24-0.06-0.49-0.12-0.72-0.19c-1.09-0.3-2.14-0.65-3.16-1.09c-0.18-0.07-0.36-0.15-0.53-0.24
			c-0.09-0.04-0.18-0.08-0.27-0.12c-1.26-0.6-2.47-1.34-3.58-2.24c-0.1-0.08-0.21-0.17-0.31-0.26c-0.9-0.76-1.74-1.63-2.51-2.63
			c-0.41-0.52-0.78-1.07-1.14-1.63c-0.08-0.12-0.15-0.24-0.22-0.37c-0.86-1.41-1.56-2.92-2.12-4.48c-0.05-0.13-0.09-0.25-0.13-0.38
			c-0.25-0.72-0.46-1.46-0.65-2.2c-0.03-0.1-0.06-0.21-0.08-0.32c-0.23-0.94-0.41-1.89-0.54-2.85c-0.02-0.11-0.04-0.22-0.05-0.34
			c-0.13-0.93-0.2-1.85-0.24-2.77c-0.01-0.14-0.02-0.28-0.02-0.43c-0.01-0.33-0.01-0.67-0.01-1c0-0.9-0.09-1.97-0.17-3.07
			c-0.01-0.14-0.02-0.28-0.03-0.43c-0.1-1.7-0.11-3.43,0.4-4.69c-0.05,0.12,0.04,0.21,0.24,0.29c0.11,0.05,0.26,0.09,0.44,0.11
			c0.64,0.13,1.67,0.18,2.86,0.19c0.1,0,0.2,0,0.29,0c0.98,0.01,2.03-0.01,3.04-0.03c0.1-0.01,0.2-0.01,0.29-0.01
			c1.95-0.05,3.63-0.11,3.98-0.07c0.01,0,0.02,0,0.03,0c0.08,0.01,0.17,0.02,0.25,0.05c0.94,0.15,1.86,0.38,2.76,0.69
			c0.11,0.03,0.21,0.07,0.32,0.1c0.9,0.32,1.78,0.71,2.63,1.16c0.11,0.05,0.22,0.11,0.32,0.17c1.04,0.57,2.03,1.23,2.96,1.96
			c0.09,0.07,0.18,0.14,0.26,0.22C52.16,60.99,52.89,61.67,53.56,62.38z"/>
		<path class="st3" d="M52.96,80.38c0.04-0.26-0.03-0.59-0.05-0.86c-0.02-0.31-0.04-0.61-0.05-0.92c-0.03-0.61-0.03-1.23,0-1.84
			c0.07-1.2,0.23-2.38,0.44-3.56c0.25-1.42,0.58-2.83,0.98-4.22c0.2-0.7,0.41-1.39,0.63-2.08c0.11-0.34,0.22-0.69,0.34-1.03
			c0.04-0.11,0.4-0.92,0.34-0.99c0.09,0.11,0.17,0.22,0.25,0.34c0.1,0.15-0.42,1.29-0.49,1.5c-0.17,0.52-0.33,1.04-0.49,1.57
			c-0.31,1.05-0.6,2.1-0.84,3.16c-0.49,2.12-0.82,4.28-0.86,6.46c-0.02,0.87-0.06,1.67,0.19,2.52c0.12,0.4,0.41,0.71,0.72,0.98
			c0.13,0.12,0.98,0.64,0.98,0.79c0.14-4.71,1.1-9.42,2.7-13.86c0.07,0.14,0.15,0.27,0.21,0.41c-1.51,4.41-2.37,8.95-2.67,13.66
			c0.69,0.59,1.4,1.17,2.09,1.75c-0.4-2.11,0.1-4.22,0.6-6.28c0.45-1.91,0.95-3.82,1.5-5.7c0.07,0.17,0.13,0.33,0.19,0.51
			c-0.39,1.37-0.76,2.74-1.11,4.13c-0.63,2.49-1.32,5-0.9,7.59c0.35,0.29,0.7,0.57,1.05,0.85c0.72-2.72,1.45-5.43,2.22-8.13
			c0.05,0.24,0.1,0.49,0.14,0.73c-0.7,2.53-1.42,5.05-2.15,7.57c0.22,0.18,0.45,0.37,0.67,0.55c-0.07,0.08-0.15,0.15-0.22,0.23
			c-0.24-0.2-0.49-0.4-0.73-0.6c-0.74,1.03-1.88,1.91-3.08,2.64c-0.29,0.06-0.59,0.09-0.89,0.11c1.4-0.81,2.79-1.72,3.76-2.93
			c-0.36-0.3-0.73-0.59-1.1-0.9c-1.34,1.56-3,2.81-4.83,3.7c-0.22-0.02-0.45-0.05-0.67-0.07c1.97-0.88,3.74-2.16,5.3-3.8
			c-0.03,0.04-2.13-1.78-2.34-1.96c-0.01,0.01-0.01,0.03-0.02,0.04c-2.09,2.41-4.92,4.06-7.98,4.84c-0.24-0.06-0.49-0.12-0.72-0.19
			c3.2-0.7,6.13-2.37,8.54-4.85c-0.58-0.5-1.17-1-1.75-1.51c-2.81,2.54-6.27,4.32-9.95,5.27c-0.18-0.07-0.36-0.15-0.53-0.24
			c3.74-0.93,7.19-2.71,10.29-5.21c-0.04,0.03-1.22-1.08-1.34-1.19c-0.2-0.18-0.4-0.36-0.57-0.56c-0.1-0.12-0.26-0.36-0.42-0.4
			c-0.14-0.03-0.45,0.22-0.57,0.28c-0.39,0.22-0.77,0.46-1.14,0.71c-0.74,0.5-1.47,1.04-2.24,1.5c-1.16,0.69-2.42,1.21-3.71,1.61
			c-1.36,0.41-2.75,0.69-4.16,0.89c-0.1-0.08-0.21-0.17-0.31-0.26c1.48-0.2,2.96-0.48,4.4-0.93c1.45-0.45,2.82-1.05,4.1-1.87
			c1.14-0.72,2.15-1.57,3.38-2.13c-0.78-0.72-1.55-1.45-2.31-2.19c-3.97,2.24-8.66,3.19-13.21,2.84c-0.08-0.12-0.15-0.24-0.22-0.37
			c4.54,0.35,9.02-0.59,13.24-2.68c-0.51-0.5-1.03-1-1.53-1.5c-2.19,1.4-4.83,1.21-7.32,0.93c-2.19-0.24-4.37-0.65-6.5-1.24
			c-0.05-0.13-0.09-0.25-0.13-0.38c2,0.53,4.01,0.97,6.08,1.23c2.55,0.31,5.35,0.62,7.63-0.78c-0.05,0.03-1.04-1.07-1.15-1.18
			c-0.31-0.32-0.77-0.13-1.17-0.09c-0.41,0.05-0.82,0.08-1.23,0.11c-0.82,0.05-1.65,0.07-2.47,0.04c-1.42-0.04-2.84-0.2-4.24-0.46
			c-0.7-0.13-1.4-0.29-2.08-0.47c-0.34-0.09-0.69-0.19-1.03-0.29c-0.13-0.04-0.94-0.2-0.98-0.31c-0.03-0.1-0.06-0.21-0.08-0.32
			c4.12,1.36,8.4,1.75,12.79,1.34c0.01,0,0.02,0.01,0.04,0.01c0-0.01-0.01-0.03-0.01-0.04c-0.08-0.08-0.15-0.15-0.23-0.23
			c-0.47-0.49-0.93-0.99-1.4-1.49c-0.23-0.25-0.46-0.5-0.69-0.75c-0.19-0.2-0.31-0.2-0.59-0.12c-3.36,0.89-7.1-0.2-10.46-1.57
			c-0.02-0.11-0.04-0.22-0.05-0.34c0.01,0.07,0.81,0.32,0.91,0.35c0.32,0.12,0.64,0.24,0.97,0.35c0.65,0.22,1.3,0.43,1.96,0.6
			c1.29,0.34,2.62,0.57,3.96,0.59c0.43,0.01,0.86-0.01,1.29-0.05c0.22-0.02,0.44-0.05,0.66-0.09c0.1-0.02,0.87-0.24,0.93-0.17
			c-0.79-0.86-1.57-1.73-2.34-2.62c-2.9-0.23-5.9-0.62-8.59-1.72c-0.01-0.14-0.02-0.28-0.02-0.43c2.6,1.1,5.47,1.49,8.35,1.86
			c-0.88-1.03-1.74-2.07-2.58-3.13c-0.04-0.05-0.08-0.1-0.12-0.15c-2.08-0.6-4.04-1.5-5.83-2.65c-0.01-0.14-0.02-0.28-0.03-0.43
			c1.71,1.12,3.57,2.02,5.56,2.71c-1.78-2.29-3.45-4.66-4.91-7.11c0.11,0.05,0.26,0.09,0.44,0.11c0.12,0.02,0.48,0.79,0.56,0.92
			c0.2,0.32,0.4,0.63,0.61,0.95c0.4,0.62,0.82,1.23,1.24,1.83c0.43,0.61,0.86,1.2,1.31,1.8c0.23,0.3,0.46,0.6,0.69,0.9
			c0.17,0.21,0.33,0.52,0.54,0.69c0.12-0.45-0.3-1.09-0.45-1.51c-0.21-0.58-0.43-1.16-0.62-1.75c-0.2-0.61-0.38-1.23-0.56-1.85
			c-0.04-0.16-0.41-1.78-0.46-1.78c0.1,0,0.2,0,0.29,0c0.05,0,0.46,1.74,0.51,1.91c0.19,0.66,0.4,1.32,0.62,1.98
			c0.22,0.66,0.45,1.31,0.7,1.95c0.12,0.31,0.24,0.61,0.36,0.91c0.11,0.29,0.22,0.62,0.34,0.92c0.14,0.34,0.31,0.51,0.55,0.79
			c0.49,0.6,1,1.19,1.5,1.78c-1.31-3.27-1.58-6.78-1.53-10.28c0.1-0.01,0.2-0.01,0.29-0.01c-0.07,0,0.12,3.8,0.14,4.14
			c0.12,1.38,0.33,2.76,0.68,4.1c0.11,0.43,0.24,0.86,0.39,1.29c0.07,0.21,0.17,0.42,0.23,0.64c0.07,0.22,0.06,0.4,0.2,0.59
			c0.2,0.27,0.45,0.52,0.68,0.77c0.44,0.5,0.89,0.99,1.33,1.48c-0.85-4.3-0.68-8.82,0.32-13.09c0.01,0,0.02,0,0.03,0
			c0.08,0.01,0.17,0.02,0.25,0.05c-0.97,4.49-0.99,8.91-0.26,13.43c0.72,0.79,1.45,1.57,2.18,2.33c-1.1-4.99-0.5-10.17,0.84-15.08
			c0.11,0.03,0.21,0.07,0.32,0.1c-1.32,5.03-1.93,10.18-0.81,15.34c0.53,0.56,1.08,1.12,1.63,1.67c-1.11-5.25-0.02-10.82,1.82-15.85
			c0.11,0.05,0.22,0.11,0.32,0.17c-1.73,5.21-2.75,10.46-1.8,16.02c0.51,0.51,1.03,1.01,1.55,1.52c0.02,0.02,0.04,0.03,0.06,0.06
			c0.21-5.34,1.28-10.64,3.15-15.64c0.09,0.07,0.18,0.14,0.26,0.22c0.04,0.04-0.33,0.93-0.36,1.03c-0.12,0.36-0.24,0.72-0.35,1.08
			c-0.23,0.72-0.44,1.45-0.64,2.18c-0.39,1.46-0.73,2.93-1,4.42c-0.22,1.19-0.4,2.39-0.54,3.6c-0.07,0.61-0.13,1.21-0.18,1.82
			c-0.03,0.31-0.05,0.61-0.07,0.92c-0.01,0.2-0.07,0.41,0.02,0.61c0.11,0.25,0.39,0.44,0.58,0.62c0.5,0.47,1,0.94,1.5,1.41
			c-0.5-2.28-0.01-4.61,0.53-6.85c0.7-3,1.62-5.93,2.69-8.81c0.08,0.09,0.16,0.18,0.24,0.27c-0.91,2.46-1.7,4.96-2.35,7.5
			c-0.34,1.33-0.68,2.67-0.87,4.04c-0.09,0.68-0.14,1.37-0.13,2.06c0,0.35,0.02,0.69,0.06,1.03c0.03,0.31,0.01,0.66,0.15,0.95
			c0.15,0.31,0.39,0.46,0.64,0.68c0.2,0.19,0.41,0.37,0.61,0.55c0.21,0.18,0.41,0.37,0.62,0.55C52.64,80.12,52.81,80.34,52.96,80.38
			z"/>
	</g>
	<g>
		<path class="st4" d="M46.19,110.37c0.08-0.04,0.17-0.09,0.26-0.14c0.28-0.14,0.55-0.29,0.81-0.45c0.38-0.23,0.77-0.48,1.15-0.75
			c0.1-0.06,0.19-0.12,0.28-0.19c0.78-0.56,1.54-1.17,2.28-1.84c0.09-0.08,0.18-0.17,0.27-0.25c0.74-0.68,1.44-1.41,2.1-2.18
			c0.1-0.11,0.19-0.22,0.28-0.33c0.8-0.96,1.53-1.97,2.17-3.02c0.11-0.17,0.21-0.34,0.31-0.52c0.41-0.72,0.78-1.45,1.09-2.18
			c0.63-1.48,0.57-3.03,0.01-4.37c-0.03-0.08-0.07-0.16-0.1-0.23c-0.5-1.06-1.31-1.98-2.33-2.59c-0.2-0.12-0.42-0.23-0.64-0.33
			c-0.26-0.11-0.53-0.21-0.82-0.28c-0.29-0.08-0.58-0.15-0.86-0.22c-0.18-0.04-0.36-0.09-0.53-0.13c0,0,0,0,0,0
			c-1.35-0.32-2.71-0.57-4.05-0.71c-0.2-0.02-0.4-0.04-0.6-0.06c-0.91-0.07-1.8-0.09-2.69-0.04c-0.15,0.01-0.31,0.02-0.47,0.04
			c-0.08,0-0.16,0.01-0.24,0.02c-1.12,0.11-2.23,0.34-3.32,0.72c-0.1,0.03-0.2,0.07-0.31,0.11c-0.89,0.33-1.76,0.76-2.62,1.31
			c-0.45,0.29-0.88,0.6-1.31,0.93c-0.09,0.07-0.18,0.14-0.27,0.22c-1.03,0.83-1.98,1.79-2.83,2.82c-0.07,0.08-0.13,0.16-0.2,0.25
			c-0.39,0.48-0.75,0.98-1.09,1.49c-0.05,0.07-0.1,0.15-0.15,0.22c-0.43,0.65-0.83,1.32-1.19,2.01c-0.05,0.08-0.09,0.16-0.13,0.24
			c-0.35,0.67-0.66,1.35-0.94,2.03c-0.05,0.11-0.09,0.21-0.13,0.32c-0.1,0.25-0.19,0.5-0.28,0.76c-0.25,0.68-0.61,1.47-0.97,2.28
			c-0.05,0.11-0.09,0.21-0.14,0.32c-0.54,1.26-1.02,2.57-0.98,3.66c-0.01-0.1,0.09-0.15,0.26-0.15c0.1,0,0.22,0,0.36,0.04
			c0.52,0.08,1.32,0.32,2.22,0.64c0.07,0.03,0.15,0.05,0.22,0.08c0.74,0.26,1.54,0.56,2.29,0.85c0.08,0.03,0.15,0.06,0.22,0.09
			c1.47,0.57,2.72,1.08,2.99,1.14c0.01,0.01,0.01,0,0.02,0.01c0.07,0.01,0.14,0.03,0.21,0.03c0.75,0.14,1.51,0.22,2.28,0.23
			c0.09,0.01,0.18,0.01,0.27,0.01c0.77,0,1.55-0.05,2.31-0.16c0.1-0.01,0.19-0.02,0.29-0.04c0.95-0.15,1.88-0.37,2.78-0.67
			c0.09-0.03,0.17-0.06,0.26-0.09C44.75,111.04,45.48,110.73,46.19,110.37z"/>
		<path class="st3" d="M50.66,96.57c-0.04,0.21-0.18,0.44-0.27,0.63c-0.1,0.23-0.2,0.45-0.29,0.68c-0.19,0.46-0.36,0.92-0.5,1.39
			c-0.28,0.92-0.48,1.87-0.64,2.82c-0.2,1.15-0.33,2.3-0.42,3.47c-0.04,0.58-0.07,1.17-0.09,1.75c-0.01,0.29-0.02,0.58-0.02,0.88
			c0,0.1,0.05,0.8-0.01,0.84c0.1-0.06,0.19-0.12,0.28-0.19c0.12-0.09,0.03-1.09,0.04-1.27c0.02-0.44,0.04-0.88,0.06-1.32
			c0.05-0.88,0.12-1.75,0.23-2.63c0.21-1.74,0.55-3.47,1.12-5.13c0.23-0.66,0.41-1.29,0.83-1.85c0.2-0.27,0.51-0.43,0.81-0.55
			c0.13-0.05,0.92-0.22,0.95-0.33c-1.18,3.61-1.75,7.44-1.75,11.24c0.09-0.08,0.18-0.17,0.27-0.25c0.06-3.76,0.66-7.43,1.72-11.08
			c0.69-0.26,1.38-0.5,2.06-0.75c-0.88,1.49-1.07,3.22-1.26,4.92c-0.18,1.57-0.32,3.15-0.42,4.73c0.1-0.11,0.19-0.22,0.28-0.33
			c0.08-1.14,0.17-2.29,0.29-3.43c0.21-2.06,0.36-4.15,1.4-5.99c0.34-0.12,0.69-0.24,1.03-0.36c-0.2,2.26-0.38,4.51-0.54,6.77
			c0.11-0.17,0.21-0.34,0.31-0.52c0.16-2.11,0.31-4.21,0.44-6.32c0.22-0.08,0.44-0.16,0.66-0.23c-0.03-0.08-0.07-0.16-0.1-0.23
			c-0.24,0.08-0.48,0.17-0.72,0.25c-0.28-0.98-0.9-1.96-1.61-2.84c-0.2-0.12-0.42-0.23-0.64-0.33c0.84,0.99,1.65,2.07,2.05,3.25
			c-0.36,0.13-0.72,0.25-1.08,0.38c-0.59-1.55-1.51-2.95-2.65-4.13c-0.18-0.04-0.36-0.09-0.53-0.13c1.25,1.2,2.24,2.66,2.98,4.33
			c-0.02-0.04-2.1,0.77-2.31,0.84c0-0.01,0-0.03,0-0.04c-0.92-2.4-2.62-4.42-4.72-5.85c-0.2-0.02-0.4-0.04-0.6-0.06
			c2.23,1.41,3.99,3.47,5.14,6.01c-0.58,0.22-1.16,0.44-1.74,0.67c-1.44-2.69-3.57-4.99-6.1-6.71c-0.15,0.01-0.31,0.02-0.47,0.04
			c2.58,1.73,4.7,4.02,6.37,6.76c-0.02-0.03-1.22,0.49-1.34,0.53c-0.2,0.08-0.4,0.16-0.59,0.27c-0.11,0.06-0.29,0.21-0.42,0.19
			c-0.11-0.02-0.28-0.29-0.35-0.37c-0.24-0.27-0.45-0.56-0.67-0.85c-0.43-0.58-0.83-1.19-1.29-1.75c-0.69-0.84-1.5-1.58-2.37-2.23
			c-0.92-0.68-1.89-1.28-2.9-1.81c-0.1,0.03-0.2,0.07-0.31,0.11c1.07,0.56,2.11,1.18,3.08,1.9c0.98,0.73,1.85,1.57,2.6,2.53
			c0.67,0.86,1.2,1.78,1.97,2.54c-0.78,0.33-1.57,0.67-2.35,1.03c-2.4-2.78-5.68-4.79-9.23-5.77c-0.09,0.07-0.18,0.14-0.27,0.22
			c3.54,0.98,6.67,2.91,9.3,5.65c-0.52,0.23-1.05,0.47-1.57,0.72c-1.28-1.66-3.33-2.24-5.29-2.71c-1.73-0.41-3.49-0.71-5.26-0.84
			c-0.07,0.08-0.13,0.16-0.2,0.25c1.66,0.14,3.3,0.36,4.94,0.73c2.02,0.46,4.22,1,5.57,2.68c-0.03-0.04-1.08,0.53-1.19,0.58
			c-0.32,0.16-0.62-0.11-0.91-0.25c-0.3-0.15-0.6-0.29-0.9-0.42c-0.61-0.26-1.23-0.5-1.86-0.71c-1.09-0.36-2.21-0.63-3.34-0.81
			c-0.57-0.09-1.14-0.17-1.71-0.22c-0.29-0.03-0.57-0.05-0.86-0.06c-0.11-0.01-0.77-0.1-0.82-0.03c-0.05,0.07-0.1,0.15-0.15,0.22
			c3.49,0.1,6.84,0.97,10.06,2.48c0.01,0.01,0.02,0,0.03,0c-0.01,0.01-0.01,0.02-0.02,0.03c-0.08,0.04-0.16,0.07-0.23,0.11
			c-0.49,0.24-0.98,0.49-1.47,0.74c-0.24,0.12-0.48,0.25-0.73,0.38c-0.19,0.1-0.29,0.06-0.48-0.07c-2.3-1.59-5.43-1.79-8.35-1.67
			c-0.05,0.08-0.09,0.16-0.13,0.24c0.03-0.06,0.7-0.02,0.79-0.02c0.28,0,0.55,0,0.83,0c0.55,0.01,1.1,0.03,1.65,0.08
			c1.07,0.1,2.14,0.29,3.16,0.64c0.33,0.11,0.65,0.24,0.96,0.39c0.16,0.08,0.32,0.16,0.47,0.24c0.07,0.04,0.6,0.42,0.66,0.39
			c-0.83,0.43-1.66,0.88-2.49,1.35c-2.26-0.61-4.64-1.14-6.98-1.04c-0.05,0.11-0.09,0.21-0.13,0.32c2.27-0.12,4.55,0.37,6.83,0.88
			c-0.95,0.54-1.89,1.09-2.81,1.66c-0.04,0.03-0.09,0.06-0.13,0.08c-1.74-0.11-3.47,0.03-5.14,0.42c-0.05,0.11-0.09,0.21-0.14,0.32
			c1.6-0.38,3.26-0.55,4.95-0.53c-1.97,1.25-3.89,2.58-5.67,4.04c0.1,0,0.22,0,0.36,0.04c0.1,0.02,0.58-0.47,0.68-0.54
			c0.24-0.19,0.48-0.37,0.72-0.55c0.48-0.36,0.96-0.7,1.44-1.05c0.49-0.34,0.98-0.68,1.48-1c0.25-0.17,0.51-0.33,0.77-0.5
			c0.18-0.12,0.39-0.3,0.6-0.37c-0.04,0.38-0.52,0.74-0.75,1.02c-0.32,0.38-0.64,0.76-0.95,1.16c-0.32,0.41-0.63,0.83-0.93,1.25
			c-0.08,0.11-0.8,1.24-0.84,1.22c0.07,0.03,0.15,0.05,0.22,0.08c0.04,0.02,0.83-1.19,0.91-1.31c0.33-0.45,0.66-0.89,1.01-1.33
			c0.35-0.44,0.7-0.87,1.06-1.29c0.17-0.2,0.35-0.39,0.52-0.59c0.16-0.19,0.33-0.41,0.51-0.6c0.2-0.22,0.38-0.3,0.63-0.45
			c0.54-0.32,1.08-0.63,1.62-0.94c-1.89,2.12-3.06,4.71-3.97,7.37c0.08,0.03,0.15,0.06,0.22,0.09c-0.06-0.02,1.13-2.84,1.24-3.1
			c0.47-1.02,1-2,1.64-2.92c0.21-0.3,0.42-0.59,0.65-0.87c0.11-0.14,0.24-0.27,0.35-0.42c0.11-0.15,0.15-0.29,0.32-0.4
			c0.23-0.15,0.48-0.27,0.72-0.4c0.47-0.26,0.94-0.51,1.42-0.76c-1.82,3.03-2.93,6.5-3.34,10.01c0.01,0.01,0.01,0,0.02,0.01
			c0.07,0.01,0.14,0.03,0.21,0.03c0.49-3.67,1.69-7.02,3.47-10.25c0.76-0.4,1.53-0.79,2.29-1.17c-2.2,3.48-3.16,7.57-3.48,11.65
			c0.09,0.01,0.18,0.01,0.27,0.01c0.37-4.17,1.32-8.24,3.58-11.84c0.56-0.28,1.12-0.55,1.69-0.82c-2.28,3.68-2.97,8.19-2.96,12.5
			c0.1-0.01,0.19-0.02,0.29-0.04c0.12-4.42,0.77-8.68,3.02-12.63c0.52-0.25,1.06-0.49,1.59-0.73c0.02-0.01,0.03-0.01,0.06-0.03
			c-1.3,4.1-1.94,8.41-1.89,12.71c0.09-0.03,0.17-0.06,0.26-0.09c0.04-0.02,0.01-0.79,0.01-0.88c0.01-0.31,0.02-0.61,0.03-0.91
			c0.03-0.61,0.06-1.22,0.11-1.82c0.1-1.21,0.25-2.42,0.45-3.62c0.16-0.96,0.35-1.92,0.58-2.87c0.11-0.48,0.23-0.95,0.36-1.43
			c0.06-0.24,0.13-0.48,0.2-0.71c0.05-0.16,0.06-0.33,0.18-0.46c0.15-0.16,0.42-0.23,0.61-0.31c0.51-0.22,1.01-0.44,1.52-0.66
			c-1,1.59-1.26,3.49-1.47,5.33c-0.29,2.46-0.4,4.94-0.37,7.41c0.08-0.04,0.17-0.09,0.26-0.14c-0.01-2.11,0.07-4.22,0.27-6.33
			c0.11-1.1,0.21-2.21,0.45-3.3c0.12-0.54,0.27-1.08,0.46-1.6c0.1-0.26,0.21-0.52,0.33-0.77c0.11-0.23,0.19-0.5,0.37-0.68
			c0.2-0.2,0.42-0.24,0.67-0.34c0.21-0.08,0.41-0.17,0.62-0.25c0.21-0.08,0.41-0.17,0.62-0.25C50.35,96.68,50.53,96.56,50.66,96.57z
			"/>
	</g>
	<g>
		<g>
			<path class="st8" d="M103.56,95.46c-0.11,1.19-0.45,2.34-0.49,3.52c-0.02,0.83,0.11,1.68,0.04,2.51
				c-0.03,0.34-0.08,0.66-0.16,0.98c-0.68,2.93-3.18,4.89-4.8,7.2c-0.3,0.43-0.5,0.87-0.64,1.31c-0.08,0.25-0.14,0.5-0.18,0.77
				c-0.15,0.85-0.13,1.72-0.18,2.6l0,0.01c-0.08,1.25-0.3,2.51-1.32,3.71c-2.22,2.61-5.45,2.89-8.62,2.63
				c-1.41-0.11-2.89-0.32-4.17,0.25c-1.55,0.7-2.38,2.68-3.74,3.74c-0.29,0.22-0.59,0.45-0.92,0.62c-0.03,0.02-0.06,0.03-0.09,0.05
				c-0.15,0.08-0.32,0.15-0.48,0.22c-0.25,0.08-0.51,0.14-0.78,0.14c-0.73,0.01-1.42-0.37-2.12-0.6c-0.76-0.26-1.53-0.38-2.34-0.43
				c-1.23-0.08-2.48-0.01-3.72-0.12c-4.62-0.4-8.91-3.51-10.71-7.78c-0.04-0.09-0.07-0.18-0.11-0.27c-0.2-0.47-0.4-0.95-0.78-1.29
				c-0.52-0.49-1.25-0.63-1.94-0.8c-0.29-0.08-0.58-0.18-0.89-0.29c0,0,0,0-0.01,0c-2.16-0.82-4.46-2.6-6.07-4.77
				c-1.6-2.15-2.53-4.67-2.02-7.04c0.28-1.3,1.13-2.45,1.23-3.78c0.12-1.6-0.87-3.07-1.13-4.65c-0.18-1.13,0.82-3.04,2.19-4.79
				c0.18-0.23,0.37-0.47,0.56-0.69c1.63-1.89,3.57-3.41,4.69-3.27c0.01-0.01,0.01,0,0.02,0c0.23,0.04,0.42,0.14,0.58,0.33
				c0.07,0.09,0.12,0.19,0.17,0.32c-0.03-0.09-0.07-0.19-0.1-0.28c-0.07-0.22-0.13-0.43-0.2-0.64c-1.38-4.93,1.45-8.83,5.49-11.17
				c0.01-0.01,0.01-0.02,0.02-0.01c2.08-1.2,4.47-1.97,6.79-2.24c1.17-0.14,2.34-0.16,3.48-0.04c1.66,0.18,3.23,0.7,4.62,1.69
				c0.14,0.1,0.28,0.21,0.43,0.33c0.02,0.01,0.03,0.03,0.05,0.04c0.84-1.56,1.35-2.9,2.34-3.54c0.66-0.43,1.53-0.55,2.86-0.2
				c2.13,0.55,3.94,2.28,5.8,3.39c1.19,0.69,2.58,0.96,3.88,1.44c1.99,0.74,3.35,1.95,4.27,3.42c2.06,3.3,1.97,7.97,1.99,11.94
				c0.08-0.08,0.17-0.14,0.26-0.21c0.01-0.01,0.01-0.01,0.01-0.01c0.31-0.22,0.65-0.4,1.02-0.51c0.2-0.06,0.4-0.1,0.6-0.14
				c1.22-0.16,2.56,0.23,3.49,1.05C103.18,91.39,103.74,93.51,103.56,95.46z"/>
			<path class="st9" d="M53.87,85.12c0.23,0.04,0.42,0.14,0.58,0.33C54.25,85.33,54.06,85.23,53.87,85.12z"/>
			<g>
				<path class="st9" d="M97.5,110.98c-0.08,0.25-0.14,0.5-0.18,0.77c-2.58-4.73-7.33-7.81-12.57-9.68c-0.68,1.04-1.63,1.94-2.7,2.6
					c-0.2,0.12-0.4,0.24-0.61,0.34c-0.13,0.07-0.27,0.13-0.4,0.18c-0.86,0.4-1.76,0.68-2.7,0.86c-0.2,0.04-0.41,0.07-0.61,0.11
					c-0.31,0.04-0.62,0.09-0.93,0.11c-0.17,0.02-0.34,0.03-0.51,0.04c-0.48,0.05-0.96,0.06-1.45,0.04c-0.19,0-0.38,0-0.57,0
					c-0.33-0.01-0.65-0.02-0.99-0.04c-0.95-0.05-1.9-0.16-2.77-0.52c-0.54-0.22-1.02-0.53-1.49-0.89c-0.09-0.06-0.17-0.13-0.26-0.21
					c-0.06-0.04-0.11-0.09-0.17-0.14c-0.07-0.06-0.13-0.12-0.2-0.18c-0.21-0.19-0.43-0.38-0.64-0.58c-0.53-0.48-1.05-0.96-1.54-1.47
					c-0.13-0.13-0.26-0.27-0.39-0.41c-0.51-0.56-0.97-1.16-1.35-1.82c-0.2-0.37-0.38-0.76-0.51-1.16c-0.07-0.2-0.13-0.41-0.18-0.61
					c-0.09-0.39-0.15-0.77-0.15-1.16l-0.01,0.02c0.01-0.02,0.01-0.04,0.01-0.07c-0.01-0.57,0.1-1.14,0.31-1.67
					c-2.47-4.02-5.46-7.65-9.43-9.94c-0.07-0.22-0.13-0.43-0.2-0.64c4.18,2.21,7.44,5.95,9.9,10.07c0.25-0.59,0.54-1.14,0.92-1.65
					c0.12-0.16,0.25-0.31,0.38-0.47c0.31-0.34,0.64-0.65,1.03-0.9c0,0,0,0,0.01,0c0.02-0.01,0.03-0.02,0.05-0.03
					c0.72-0.44,1.55-0.64,2.38-0.83c0.27-0.06,0.53-0.12,0.79-0.19c0.22-0.05,0.43-0.11,0.65-0.19c0.59-0.18,1.16-0.38,1.74-0.58
					c0.17-0.05,0.33-0.1,0.5-0.16c0.2-0.06,0.39-0.12,0.59-0.18c0.15-0.04,0.31-0.08,0.47-0.12c0.11-0.03,0.23-0.06,0.34-0.08
					c0.73-0.15,1.47-0.21,2.21-0.16c0.28,0.01,0.56,0.02,0.85,0.07c1.07,0.13,2.11,0.44,3.07,0.89c0.22,0.1,0.43,0.22,0.65,0.34
					c0.65,0.36,1.26,0.78,1.82,1.26c0.28,0.25,0.55,0.51,0.78,0.78c0.81,0.86,1.46,1.84,1.89,2.94c0.01,0.02,0.02,0.04,0.02,0.06
					c2.46-0.2,4.67-1.13,6.75-2.52c1.42-0.95,3.2-2.12,4.48-3.51c0.01-0.01,0.01-0.01,0.01-0.01c0.31-0.22,0.65-0.4,1.02-0.51
					c-1.28,1.8-3.54,3.26-5.27,4.43c-2.11,1.4-4.36,2.35-6.84,2.53c0.25,0.75,0.41,1.53,0.41,2.32c0,0.36-0.03,0.71-0.1,1.06
					c-0.04,0.2-0.09,0.4-0.14,0.59c-0.16,0.55-0.39,1.09-0.69,1.6C90.05,103.45,94.84,106.48,97.5,110.98z"/>
				<path class="st9" d="M73.73,89.64c0.02,0.25,0.05,0.49,0.07,0.74c0.02,0.3-0.43,0.35-0.46,0.05c-0.03-0.23-0.05-0.45-0.08-0.68
					c-0.59-5.6-0.09-11.28,1.45-16.67c0.14,0.1,0.28,0.21,0.43,0.33C73.71,78.7,73.26,84.09,73.73,89.64z"/>
				<path class="st9" d="M78.28,125.36c-0.15,0.08-0.32,0.15-0.48,0.22c-3.23-5.79-3.03-12.86-1.51-19.27
					c0.24-1.04,0.51-2.06,0.81-3.05c0.05-0.18,0.29-0.16,0.35-0.03c0.01,0.04,0.01,0.09,0.02,0.13c-0.24,0.97-0.46,1.94-0.67,2.92
					C75.44,112.81,75.13,119.37,78.28,125.36z"/>
				<path class="st9" d="M70.56,102.04c-0.02,0.02-0.03,0.05-0.04,0.07c-0.55,0.86-1.14,1.72-1.76,2.56c-0.15,0.2-0.3,0.41-0.45,0.6
					c-3.36,4.38-7.73,8.12-13.01,9.14c-0.29-0.08-0.58-0.18-0.89-0.29c5.83-0.82,10.4-5,13.97-9.76c0.29-0.37,0.57-0.76,0.84-1.14
					c0.33-0.46,0.64-0.92,0.95-1.39C70.34,101.6,70.71,101.81,70.56,102.04z"/>
			</g>
			<path class="st11" d="M87.46,100.48c0.03-0.37-0.13-0.76-0.51-0.94c-0.18-0.09-0.34-0.09-0.52-0.04
				c-0.06,0.02-0.25,0.18-0.32,0.14c-1.97-1.08-3.97-1.7-6.18-1.8c-0.13-0.51-0.44-0.96-0.86-1.33c1.06-0.58,2.13-0.96,3.39-1.15
				c0.14,0.43,0.66,0.68,1.08,0.46c0.45-0.23,0.57-0.94,0.12-1.24c-0.11-0.07-0.24-0.1-0.37-0.09c-0.27-0.11-0.58,0.02-0.75,0.26
				c-1.41,0.04-2.89,0.5-4.08,1.31c-0.16-0.1-0.33-0.18-0.5-0.25c-0.14-0.06-0.29-0.09-0.44-0.14c0.76-0.69,1.82-1.21,2.62-1.67
				c0.93-0.52,1.9-0.95,2.86-1.4c0.03,0.02,0.05,0.05,0.09,0.06c0.43,0.18,0.97-0.07,0.96-0.58c0-0.14-0.05-0.25-0.12-0.34
				c-0.13-0.47-0.73-0.5-1.05-0.2c-0.19,0.17-0.25,0.4-0.2,0.62c-1.27,0.49-2.49,1.17-3.63,1.89c-0.66,0.42-1.47,0.85-2.03,1.45
				c-0.01,0-0.03-0.01-0.04-0.01c-0.32-0.1-0.66-0.18-1-0.25c1.8-2.5,4-4.32,6.88-5.62c0.1,0.14,0.24,0.24,0.44,0.27
				c0.58,0.08,1.11-0.55,0.78-1.08c-0.1-0.41-0.76-0.6-1.13-0.26c-0.16,0.15-0.25,0.37-0.25,0.58c-2.97,1.09-5.68,3.29-7.32,6.03
				c-0.17-0.02-0.33-0.05-0.5-0.06c0.6-3.17,2.2-6.18,4.52-8.41c0.07,0.03,0.15,0.06,0.24,0.07c0.77,0.08,1.32-0.92,0.89-1.55
				c-0.39-0.57-1.33-0.25-1.58,0.28c-0.04,0.09-0.07,0.86,0.01,0.8c-2.48,1.89-4.31,5.52-4.72,8.79c-0.22,0-0.43,0.01-0.64,0.03
				c-0.34-2.39-0.68-4.98-1.6-7.18c0.05-0.03,0.1-0.05,0.14-0.08c0.53-0.48,0.06-1.22-0.57-1.14c-0.53,0.06-1.14,0.42-0.83,1.03
				c0.17,0.32,0.51,0.4,0.85,0.35c0.78,2.26,1.06,4.73,1.51,7.1c-0.51,0.09-1,0.23-1.41,0.44c-0.86-1.25-1.32-2.58-1.69-4.1
				c0.29-0.17,0.49-0.53,0.42-0.89c-0.12-0.6-0.9-0.78-1.32-0.36c-0.2,0.19-0.22,0.52-0.13,0.75c0.01,0.2,0.11,0.39,0.31,0.51
				c0.07,0.04,0.14,0.07,0.21,0.08c0.2,1.52,0.73,3.12,1.72,4.31c-0.37,0.28-0.66,0.63-0.83,1.08c-1.54-0.91-2.56-2.37-3.69-3.8
				c0.18-0.11,0.32-0.27,0.4-0.44c0.23-0.52-0.27-0.89-0.75-0.87c-0.6,0.03-1.16,0.84-0.63,1.32c0.13,0.12,0.29,0.16,0.45,0.16
				c0.99,1.67,2.33,3.3,4.1,4.13c-0.01,0.05-0.03,0.09-0.03,0.14c-0.01,0.08,0.01,0.16,0.01,0.24c-2.24,0.33-4.47,0.32-6.74,0.44
				c-0.11-1.27-1.96-0.48-1.31,0.48c0.24,0.36,0.76,0.36,1.07,0.08c2.3,0.16,4.72,0.05,6.99-0.47c0.04,0.23,0.1,0.45,0.19,0.65
				c-1.66,0.86-3.28,1.89-4.79,2.94c-0.09-0.08-0.2-0.14-0.32-0.16c-0.14-0.03-0.28,0-0.4,0.07c-0.02,0-0.04-0.01-0.06,0
				c-0.51,0.15-0.62,0.84-0.24,1.2c0.35,0.33,0.98,0.23,1.21-0.19c0.08-0.14,0.08-0.3,0.05-0.45c1.62-0.94,3.27-1.88,4.86-2.87
				c0.16,0.22,0.34,0.42,0.55,0.6c-1.79,2.09-3.15,4.49-3.53,7.25c-0.47,0.02-0.83,0.5-0.71,0.99c0.15,0.57,0.81,0.78,1.26,0.42
				c0.59-0.48,0.31-1-0.11-1.22c0.44-2.75,1.78-5.03,3.48-7.14c0.25,0.16,0.53,0.31,0.82,0.43c-0.47,1.06-0.76,2.22-0.71,3.33
				c-0.08,0.02-0.15,0.05-0.23,0.1c-0.52,0.34-0.39,1.17,0.22,1.32c0.38,0.1,0.73-0.18,0.81-0.52c0.02-0.03,0.05-0.06,0.06-0.1
				c0.07-0.29-0.06-0.54-0.27-0.68c0.05-1.19,0.36-2.2,0.77-3.22c0.52,0.15,1.07,0.24,1.62,0.26c-0.58,2.07-0.69,4.1-0.49,6.32
				c-0.38,0.2-0.62,0.63-0.44,1.07c0.22,0.52,0.89,0.56,1.24,0.16c0.33-0.37,0.24-0.99-0.26-1.15c-0.01-0.02,0-0.04-0.01-0.05
				c-0.08-2.21-0.03-4.23,0.47-6.33c0.61-0.01,1.22-0.09,1.79-0.24c0.32,2.12,0.76,4.19,0.55,6.35c-0.38,0.04-0.69,0.47-0.6,0.91
				c0.12,0.59,0.89,0.78,1.32,0.38c0.35-0.33,0.25-1.05-0.2-1.24c0.37-2.14,0.04-4.45-0.48-6.6c0.59-0.22,1.11-0.53,1.5-0.93
				c0.49,0.72,0.85,1.64,1.17,2.27c0.39,0.8,0.75,1.62,1.12,2.43c-0.4,0.14-0.66,0.6-0.48,1.07c0.19,0.52,0.92,0.76,1.36,0.4
				c0.4-0.33,0.41-1.05-0.09-1.3c-0.05-0.03-0.11-0.02-0.16-0.04c-0.01-0.03-0.01-0.05-0.03-0.07c-0.36-1.28-0.89-2.47-1.55-3.63
				c-0.27-0.48-0.57-1.09-0.96-1.59c0.06-0.1,0.14-0.19,0.19-0.3c0.16-0.33,0.22-0.66,0.22-0.97c1.08,0.08,2.15,0.22,3.16,0.59
				c0.92,0.34,1.77,0.82,2.65,1.24c-0.09,0.46,0.11,1.01,0.6,1.13C87.03,101.45,87.42,100.99,87.46,100.48z"/>
		</g>
		<path class="st9" d="M97.13,114.35c-0.08,1.25-0.3,2.51-1.32,3.71c-2.22,2.61-5.45,2.89-8.62,2.63c-1.41-0.11-2.89-0.32-4.17,0.25
			c-1.55,0.7-2.38,2.68-3.74,3.74c-0.29,0.22-0.59,0.45-0.92,0.62l0-0.13c0.07-1.7,0.44-3.44,1.32-4.92
			c1.05-1.74,2.95-3.06,4.98-2.96c1.65,0.07,3.13,1.04,4.76,1.29c1.82,0.27,3.7-0.39,5.16-1.5
			C95.58,116.34,96.41,115.38,97.13,114.35z"/>
		<path class="st9" d="M103.56,95.46c-0.11,1.19-0.45,2.34-0.49,3.52c-0.02,0.83,0.11,1.68,0.04,2.51
			c-0.03,0.34-0.08,0.66-0.16,0.98c-0.16-0.14-0.3-0.31-0.43-0.48c-0.73-0.98-1.24-2.12-1.47-3.32c-0.24-1.31-0.16-2.65-0.17-3.99
			c-0.01-1.34-0.14-2.71-0.74-3.89c-0.49-0.95-1.16-1.24-1.91-1.76c1.22-0.16,2.56,0.23,3.49,1.05
			C103.18,91.39,103.74,93.51,103.56,95.46z"/>
		<path class="st9" d="M72.56,124.68c-1.23-0.08-2.48-0.01-3.72-0.12c-4.62-0.4-8.91-3.51-10.71-7.78
			c-0.04-0.09-0.07-0.18-0.11-0.27c0.98,0.82,2.4,2.51,2.87,2.88c1.45,1.13,3.09,2.03,4.92,2.31c1.73,0.27,3.65,0.02,5.12,0.98
			C71.66,123.16,72.17,123.88,72.56,124.68z"/>
		<path class="st9" d="M48.76,108.36c-0.1,0.33-0.23,0.7-0.43,0.99c-1.6-2.15-2.53-4.67-2.02-7.04c0.28-1.3,1.13-2.45,1.23-3.78
			c0.12-1.6-0.87-3.07-1.13-4.65c-0.18-1.13,0.82-3.04,2.19-4.79c-0.07,0.19-0.13,0.35-0.17,0.44c-0.74,1.94-0.71,3.98-0.39,5.99
			c0.36,2.23,1.03,4.39,1.26,6.64C49.52,104.24,49.33,106.35,48.76,108.36z"/>
		<path class="st9" d="M94.34,77.96c-0.04,0-0.07,0-0.11,0.01c-0.84,0.13-1.68,0.36-2.52,0.45c-2.26,0.24-4.6-0.53-6.26-2.07
			c-1.47-1.34-2.38-3.18-3.75-4.64c-0.69-0.74-1.57-1.36-2.54-1.69c-0.58-0.2-1.12-0.15-1.64-0.11c0.66-0.43,1.53-0.55,2.86-0.2
			c2.13,0.55,3.94,2.28,5.8,3.39c1.19,0.69,2.58,0.96,3.88,1.44C92.06,75.28,93.42,76.48,94.34,77.96z"/>
		<path class="st9" d="M70.09,71.39c-1.26,0.79-2.52,1.58-3.77,2.39c-0.11,0.06-0.21,0.13-0.33,0.16c-0.31,0.1-0.64-0.01-0.96-0.11
			c-1.68-0.55-3.51-0.6-5.22-0.17c2.08-1.2,4.47-1.97,6.79-2.24C67.79,71.28,68.95,71.26,70.09,71.39z"/>
	</g>
	<g>
		<path class="st5" d="M129.07,121.6L129.07,121.6c-0.57,0.01-1.03,0.17-1.41,0.42c-1.6,1.09-1.71,4.01-1.8,5.73
			c-0.3,5.89,2.49,12.17,7.71,16.22c3.71,2.88,8.28,4.58,12.75,6.23c-0.01-0.15-0.02-0.29-0.03-0.43c-0.02-0.32-0.04-0.64-0.07-0.96
			c-0.28-3.17-0.84-6.32-1.71-9.44c-1.14-4.17-2.85-8.33-5.84-11.78C136.74,125.35,132.44,121.54,129.07,121.6z"/>
		<path class="st4" d="M129.06,121.59c-0.56,0.01-1.02,0.17-1.4,0.42c0.78,1.99,1.86,3.98,2.79,5.8c1.46,2.87,3.13,5.6,4.91,8.34
			c3.11,4.75,6.65,9.53,10.93,13.6c-0.02-0.32-0.04-0.64-0.07-0.96c-3.71-4.15-7.23-8.33-10.22-12.97c-1.73-2.71-3.28-5.54-4.63-8.4
			C130.49,125.53,129.83,123.53,129.06,121.59z"/>
	</g>
	<g>
		<path class="st13" d="M121.08,93.77c-0.03,0-0.06,0.01-0.09,0.01c-2.78,0.36-5.6-0.04-8.4-0.08c-3.63-0.05-7.65,0.93-10.36,3.46
			c-1.21,1.13-2.69,2.23-3.74,3.5c-1.27,1.54-2.17,3.35-3.4,4.93c-1,1.29-2.2,2.4-3.54,3.32c-0.92,0.63-1.59,1.02-2.05,2.06
			c-1.19,2.68-0.82,5.62,0.35,8.24c1.3,2.91,3.28,5.57,3.9,8.7c0.45,2.29,0.16,4.79,1.26,6.85c1.08,2.02,3.32,3.19,5.57,3.58
			c2.25,0.39,4.56,0.13,6.84-0.06c1.18-0.1,2.38-0.17,3.54,0.11c1.8,0.43,3.31,1.66,5.09,2.16c2.68,0.75,5.55-0.27,7.93-1.71
			c2.38-1.44,4.5-3.31,7-4.52c2.66-1.29,5.98-2.03,7.33-4.66c0.8-1.56,0.67-3.42,0.84-5.17c0.36-3.78,2.16-7.26,3.17-10.92
			c1.01-3.66,1.04-8.04-1.61-10.76c-1.78-1.83-4.43-2.56-6.33-4.26c-1.77-1.58-2.86-3.96-4.99-5.01
			C126.85,92.31,123.88,93.4,121.08,93.77z"/>
		<path class="st1" d="M119.92,121.61c-2.58,1.08-5.97,1.78-8.58,0.38c-0.74-0.4-1.37-1.1-1.46-1.93c-0.07-0.62,0.17-1.23,0.48-1.77
			c1.26-2.14,3.02-4.03,5.61-4.33c1.63-0.19,3.24-0.15,4.84-0.5c2.31-0.51,5.11,1.33,4.35,3.98
			C124.55,119.58,121.8,120.82,119.92,121.61z"/>
		<path class="st12" d="M127.45,114.17c0.52,1.6,0.37,3.16-0.5,4.6c-0.46,0.76-0.96,1.5-1.44,2.24c-0.21,0.33-0.91,1.22-0.9,1.59
			c0.01,1.39,2.53-0.8,2.9-1.16c1.76-1.76,2.93-4.46,2.68-6.92c-0.12-1.14-0.25-2.33-0.88-3.29c-2.07-3.15-5.97-3.96-9.39-2.48
			c-0.62,0.27-2.05,0.97-2.34,1.59c-0.56,1.21,2.32,0.18,3,0.13C123.53,110.25,126.48,111.2,127.45,114.17z"/>
		<path class="st12" d="M133.13,117.42c-0.66,0.09-1,2.12-1.2,2.63c-0.45,1.14-1.13,2.21-1.92,3.14c-3.4,4.03-9.2,5.4-14.22,4.23
			c-0.47-0.11-0.86,0.54-0.38,0.81c3.85,2.19,9.69,1.96,13.51-0.22c1.84-1.04,3.23-2.75,4.02-4.69c0.45-1.1,1.71-5.13,0.25-5.89
			C133.17,117.43,133.15,117.42,133.13,117.42z"/>
		<path class="st12" d="M111.07,104.21c2.29-0.79,4.79-1.01,7.11-0.49c1.5,0.34,2.88,0.96,4.35,1.43c1.06-1.83-2.73-3.8-3.96-4.35
			c-2.66-1.19-6.02-1.18-8.78-0.37c-4.93,1.45-8.72,5.62-9.35,10.76c-0.16,1.27-0.01,2.63,0.67,3.72c0.57-0.42,0.88-1.1,1.18-1.75
			c1.08-2.31,1.99-4.35,3.88-6.07C107.57,105.83,109.26,104.84,111.07,104.21z"/>
		<path class="st12" d="M104.41,129.46c-0.56-0.42-1.17-0.77-1.74-1.17c-1.92-1.37-3.33-3.42-3.94-5.7
			c-0.68-2.56-0.25-5.07,0.87-7.42c0.38-0.81-0.55-0.53-0.85-0.4c-0.65,0.28-1.07,1.08-1.43,1.64c-0.9,1.42-1.52,3.02-1.68,4.7
			c-0.4,4.15,4.19,11.82,9.25,9.45c0.14-0.07,0.3-0.18,0.29-0.33c-0.01-0.1-0.08-0.17-0.15-0.24
			C104.84,129.8,104.63,129.62,104.41,129.46z"/>
		<path class="st12" d="M126.94,102.93c-0.37,0.07-0.43,0.61-0.11,0.79c1.6,0.86,3.43,1.53,4.67,2.92c1.23,1.38,2.26,3.5,2.5,5.35
			c0.09,0.69-0.12,1.54,0.92,1.19c0.85-0.29,1.38-1.82,1.43-2.61c0.11-1.71-0.54-3.52-1.6-4.84
			C133,103.55,129.67,102.44,126.94,102.93z"/>
		<path class="st12" d="M123.39,134.98c0.55-1.12,0.89-2.24-0.57-1.76c-2.22,0.73-4.68,0.75-6.91,0.05
			c-1.1-0.35-2.14-0.87-3.06-1.57c-0.48-0.36-0.92-0.77-1.32-1.22c-0.31-0.34-0.64-1.05-1.05-1.17c-0.24,0.4-0.3,1.02-0.3,1.49
			c0,2.93,2.28,5.43,5.07,6.19C117.96,137.73,121.91,137.98,123.39,134.98z"/>
		<path class="st12" d="M95.34,110.42c-0.46-0.05-1.01,0.02-1.22,0.07c-0.84,0.22-1.61,0.75-2.06,1.5c-0.24,0.4-0.4,0.86-0.49,1.32
			c-0.22,1.07-0.12,2.2,0.26,3.22c0.15,0.41,0.81,1.9,1.41,1.47c0.34-0.25-0.29-1.49-0.33-1.87c-0.08-0.7,0-1.43,0.24-2.09
			c0.38-1.07,1.11-1.79,2.02-2.42C95.64,111.3,96.75,110.57,95.34,110.42z"/>
		<path class="st12" d="M110.41,97.47c-0.39-0.24-0.89-0.46-1.13-0.56c-1.5-0.61-3.59-0.23-4.99,0.48c-1.45,0.74-2.6,2.04-3.22,3.54
			c-0.17,0.41-0.83,1.91-0.71,2.31c0.14,0.46,0.73,1.08,1.14,0.38c1.06-1.8,1.99-3.27,4.08-4.01c1.39-0.49,2.87-0.63,4.33-0.8
			c0.27-0.03,0.56-0.07,0.79-0.23c0.22-0.16,0.35-0.5,0.19-0.73C110.8,97.73,110.62,97.6,110.41,97.47z"/>
		<path class="st12" d="M129.11,98.11c-0.95-3.27-5.01-3.74-8.16-2.9c-0.93,0.25-2.21,0.65-2.89,1.37
			c-1.18,1.25,0.71,0.99,1.48,0.82c1.6-0.36,2.99-0.67,4.63-0.25c1.92,0.48,2.99,1.74,4.5,2.84c0.16,0.12,0.4,0.24,0.55,0.1
			c0.08-0.08,0.09-0.2,0.1-0.32C129.33,99.15,129.25,98.6,129.11,98.11z"/>
		<path class="st12" d="M104.63,134.26c-0.32-0.08-0.88,0.02-1.17,0.06c-1,0.15-1.9,0.05-2.64-0.79c-0.26-0.3-1.12-2.04-1.73-1.59
			c-0.29,0.21,0.2,1.57,0.31,1.84c0.14,0.34,0.28,0.69,0.48,1c0.54,0.84,1.55,1.37,2.55,1.34c0.83-0.03,1.65-0.44,2.18-1.08
			C105.03,134.54,104.92,134.33,104.63,134.26z"/>
		<path class="st12" d="M134.67,124.45c-0.01,0.09-0.03,0.19-0.06,0.29c-0.25,0.87-0.27,1.61-0.86,2.37
			c-0.72,0.94-1.55,1.09-2.55,1.52c-0.4,0.17-1.21,0.46-0.78,1.05c0.41,0.57,2.35-0.01,2.89-0.15c0.55-0.14,1.1-0.35,1.55-0.69
			c0.69-0.51,1.15-1.31,1.26-2.16c0.07-0.58-0.39-2.17-0.92-2.48C134.69,123.9,134.72,124.09,134.67,124.45z"/>
		<path class="st12" d="M111.26,111.16c-0.3-0.02-0.58-0.03-0.69-0.03c-7.12-0.14-9.83,13.39-1.94,13.78
			c0.16,0.01,0.33,0.01,0.47-0.08c0.3-0.2,0.2-0.67,0.01-0.99c-0.65-1.11-1.6-1.79-1.94-3.07c-0.38-1.41-0.36-2.91,0.12-4.3
			c0.55-1.58,1.68-2.92,3.12-3.76c0.31-0.18,1.96-0.72,1.76-1.27C112.12,111.27,111.68,111.19,111.26,111.16z"/>
		<path class="st12" d="M140.31,109.66c0.1,1.28-0.06,2.61-0.68,3.73c-0.38,0.7-0.93,1.21-1.58,1.65c-0.34,0.23-1.55,0.74-0.87-0.17
			c0.92-1.22,1.73-2.83,1.64-4.4c-0.04-0.72-0.29-1.41-0.53-2.09c-0.19-0.53-1.29-2.49,0.13-2.22
			C139.81,106.43,140.23,108.52,140.31,109.66z"/>
	</g>
	<g>
		<path class="st14" d="M105.82,127.98c-0.72,1.43-3.42,1.53-5.09,1.42c1.49,1.43,4.07,4.65,0.57,4.29
			c-2.61-0.26-5.49-1.75-7.84-2.84c-2.85-1.31-5.61-2.84-8.15-4.68c-0.07-0.05-0.09-0.1-0.1-0.17c-0.02,0.03-0.03,0.05-0.06,0.08
			c-0.12,0.11-0.24,0.21-0.36,0.31c3.42,2.84,6.35,7.75,6.82,12.2c0.15,1.32-0.32,3.17-1.99,3.15c-0.55-0.01-0.94-0.3-1.31-0.67
			c-0.6-0.62-0.94-2.31-1.75-1.45c-0.63,0.66-0.86,2.14-1.5,2.93c-0.38,0.48-1,1.27-1.71,1.26c-1.65-0.01-1.94-3.1-2.16-4.24
			c-0.73-3.82-0.21-7.79,1.42-11.29c-1.03,0.86-2.08,1.7-3.12,2.55c-1.2,0.98-2.78,2.82-4.35,3.21c-2.75,0.69-1.36-2.36-0.87-3.77
			c-1.84,0.41-7.33,1.76-6.26-1c0.52-1.33,2.54-1.53,3.05-2.64c0.67-1.44-1.55-1.47-2.39-1.81c-0.52-0.2-1.19-0.47-1.52-0.93
			c-1.49-2.03,3.75-2.51,4.8-2.58c4.26-0.29,8.38,1.28,12.14,3.18l0.04-0.14c-2.14-1.55-4.34-3.48-5.64-5.79
			c-0.4-0.72-0.92-1.46-1.16-2.25c-0.09-0.31-0.14-0.67,0.02-0.95c0.2-0.33,0.65-0.44,0.88-0.76c0.49-0.69-0.2-1.75-0.53-2.36
			c-0.31-0.58-0.19-0.98,0.41-1.3c0.73-0.39,2.09-0.19,2.83-0.1c0.56,0.06,1.46,0.64,1.72-0.13c0.56-1.7,0.35-4.75,2.58-5.33
			c1.3-0.34,1.97,1.26,2.25,2.25c0.61,2.21,0.03,4.68-0.36,6.87c-0.58,3.23-1.38,6.44-2.47,9.54c2.02-3.97,4.49-7.78,7.57-11.02
			c1.39-1.46,2.92-2.8,4.6-3.93c1.01-0.69,2.6-1.93,3.94-1.32c1.05,0.47,1.38,1.73,1.15,2.78c-0.12,0.58-1.13,1.64-1.14,2.04
			c-0.03,1.6,2.47,0.98,3.24,1.12c1.17,0.23,1.95,0.97,1.85,2.22c-0.09,1.25-1.06,2.08-2.02,2.76c0.8,0.71,1.03,1.8,0.51,2.83
			c-0.88,1.71-3.12,1.82-4.78,1.86c-1.22,0.03-2.38,0.21-3.52,0.45c2.48,0.1,4.96,0.49,7.34,1.22
			C104.58,125.41,106.65,126.31,105.82,127.98z"/>
		<path class="st6" d="M81.03,124.41c0.04,1.44,1.2,2.58,2.47,3.08c1.12,0.44,2.88,1.12,3.84,0.03c0.36-0.4,0.49-0.96,0.52-1.5
			c0.07-1.17-0.29-2.35-1-3.28c-0.84-1.11-2.41-2.21-3.79-1.66C81.86,121.57,80.99,123.08,81.03,124.41z"/>
		<g>
			<path class="st7" d="M96.77,115.8c-3.13,1.34-5.82,3.57-7.71,6.4c-0.12,0.18,0.16,0.35,0.29,0.18c2.03-2.73,4.52-4.79,7.6-6.24
				C97.18,116.02,97,115.7,96.77,115.8z"/>
			<path class="st7" d="M97.95,128.58c-2.24-0.92-4.44-1.9-6.61-2.97c-0.19-0.1-0.38,0.19-0.18,0.29c2.16,1.14,4.4,2.16,6.68,3.04
				C98.06,129.03,98.16,128.67,97.95,128.58z"/>
			<path class="st7" d="M99.44,119.48c-2.32,0.59-4.7,1.38-6.54,2.96c-0.17,0.14,0.06,0.37,0.23,0.24c1.92-1.46,4.13-2.16,6.4-2.85
				C99.75,119.76,99.67,119.42,99.44,119.48z"/>
			<path class="st7" d="M88.5,136.16c-0.37-1.87-0.76-4.27-2.15-5.69c-0.15-0.16-0.4,0.07-0.25,0.23c1.33,1.42,1.58,3.73,2.03,5.55
				C88.19,136.49,88.55,136.4,88.5,136.16z"/>
			<path class="st7" d="M84.06,132.12c0-0.22-0.34-0.23-0.34-0.01c-0.05,2.4-0.04,4.81,0.17,7.2c0.02,0.24,0.39,0.25,0.38,0.01
				C84.15,136.92,84.04,134.53,84.06,132.12z"/>
			<path class="st7" d="M78.23,124.03c-1.94-0.57-4.47-1.25-6.48-0.81c-0.21,0.05-0.13,0.36,0.08,0.33
				c2.02-0.36,4.35,0.33,6.29,0.84C78.36,124.45,78.47,124.1,78.23,124.03z"/>
			<path class="st7" d="M79.86,126.97c-1.22,0.69-2.44,1.34-3.72,1.89c-0.21,0.09-0.04,0.4,0.17,0.31c1.29-0.52,2.56-1.13,3.73-1.87
				C80.24,127.17,80.07,126.85,79.86,126.97z"/>
			<path class="st7" d="M85.6,111.86c0.01-0.21-0.32-0.22-0.33-0.01c-0.11,1.97-0.43,3.88-0.93,5.79c-0.06,0.24,0.3,0.34,0.36,0.11
				C85.25,115.82,85.53,113.86,85.6,111.86z"/>
			<path class="st7" d="M82.37,119.3c-0.36-1.5-0.73-3-1.04-4.51c-0.04-0.22-0.37-0.13-0.33,0.08c0.28,1.52,0.59,3.03,1.01,4.52
				C82.08,119.62,82.43,119.53,82.37,119.3z"/>
		</g>
	</g>
</g>
</svg>
